   0
SECTION
   2
ENTITIES
   0
3DFACE
   8
F1Surf
  10
6.4244685173
  20
-0.5
  30
1.20437085629
  11
6.69380426407
  21
-0.5
  31
0.995853722095
  12
6.4244685173
  22
-0.25
  32
1.20437085629
  13
6.4244685173
  23
-0.25
  33
1.20437085629
   0
3DFACE
   8
F1Surf
  10
6.4244685173
  20
-0.25
  30
1.20437085629
  11
6.69380426407
  21
-0.5
  31
0.995853722095
  12
6.69380426407
  22
-0.25
  32
0.995853722095
  13
6.69380426407
  23
-0.25
  33
0.995853722095
   0
3DFACE
   8
F1Surf
  10
7.47725296021
  20
0.25
  30
0.398039191961
  11
7.64344215393
  21
0.25
  31
0.293733924627
  12
7.47725296021
  22
0.5
  32
0.398039191961
  13
7.47725296021
  23
0.5
  33
0.398039191961
   0
3DFACE
   8
F1Surf
  10
6.69380426407
  20
-0.5
  30
0.995853722095
  11
6.91235160828
  21
-0.5
  31
0.826699256897
  12
6.69380426407
  22
-0.25
  32
0.995853722095
  13
6.69380426407
  23
-0.25
  33
0.995853722095
   0
3DFACE
   8
F1Surf
  10
6.69380426407
  20
-0.25
  30
0.995853722095
  11
6.91235160828
  21
-0.5
  31
0.826699256897
  12
6.91235160828
  22
-0.25
  32
0.826699256897
  13
6.91235160828
  23
-0.25
  33
0.826699256897
   0
3DFACE
   8
F1Surf
  10
6.91235160828
  20
-0.5
  30
0.826699256897
  11
7.12105321884
  21
-0.5
  31
0.665256679058
  12
6.91235160828
  22
-0.25
  32
0.826699256897
  13
6.91235160828
  23
-0.25
  33
0.826699256897
   0
3DFACE
   8
F1Surf
  10
6.91235160828
  20
-0.25
  30
0.826699256897
  11
7.12105321884
  21
-0.5
  31
0.665256679058
  12
7.12105321884
  22
-0.25
  32
0.665256679058
  13
7.12105321884
  23
-0.25
  33
0.665256679058
   0
3DFACE
   8
F1Surf
  10
7.12105321884
  20
-0.5
  30
0.665256679058
  11
7.30628967285
  21
-0.5
  31
0.522088050842
  12
7.12105321884
  22
-0.25
  32
0.665256679058
  13
7.12105321884
  23
-0.25
  33
0.665256679058
   0
3DFACE
   8
F1Surf
  10
7.12105321884
  20
-0.25
  30
0.665256679058
  11
7.30628967285
  21
-0.5
  31
0.522088050842
  12
7.30628967285
  22
-0.25
  32
0.522088050842
  13
7.30628967285
  23
-0.25
  33
0.522088050842
   0
3DFACE
   8
F1Surf
  10
7.30628967285
  20
-0.5
  30
0.522088050842
  11
7.47725296021
  21
-0.5
  31
0.398039191961
  12
7.30628967285
  22
-0.25
  32
0.522088050842
  13
7.30628967285
  23
-0.25
  33
0.522088050842
   0
3DFACE
   8
F1Surf
  10
7.30628967285
  20
-0.25
  30
0.522088050842
  11
7.47725296021
  21
-0.5
  31
0.398039191961
  12
7.47725296021
  22
-0.25
  32
0.398039191961
  13
7.47725296021
  23
-0.25
  33
0.398039191961
   0
3DFACE
   8
F1Surf
  10
7.47725296021
  20
-0.5
  30
0.398039191961
  11
7.64344215393
  21
-0.5
  31
0.293733924627
  12
7.47725296021
  22
-0.25
  32
0.398039191961
  13
7.47725296021
  23
-0.25
  33
0.398039191961
   0
3DFACE
   8
F1Surf
  10
7.98453855515
  20
0.25
  30
0.142964735627
  11
8.15017986298
  21
0.25
  31
0.0889875665307
  12
7.98453855515
  22
0.5
  32
0.142964735627
  13
7.98453855515
  23
0.5
  33
0.142964735627
   0
3DFACE
   8
F1Surf
  10
7.47725296021
  20
-0.25
  30
0.398039191961
  11
7.64344215393
  21
-0.5
  31
0.293733924627
  12
7.64344215393
  22
-0.25
  32
0.293733924627
  13
7.64344215393
  23
-0.25
  33
0.293733924627
   0
3DFACE
   8
F1Surf
  10
7.64344215393
  20
-0.5
  30
0.293733924627
  11
7.81408119202
  21
-0.5
  31
0.209951743484
  12
7.64344215393
  22
-0.25
  32
0.293733924627
  13
7.64344215393
  23
-0.25
  33
0.293733924627
   0
3DFACE
   8
F1Surf
  10
7.64344215393
  20
-0.25
  30
0.293733924627
  11
7.81408119202
  21
-0.5
  31
0.209951743484
  12
7.81408119202
  22
-0.25
  32
0.209951743484
  13
7.81408119202
  23
-0.25
  33
0.209951743484
   0
3DFACE
   8
F1Surf
  10
6.69380426407
  20
0
  30
0.995853722095
  11
6.91235160828
  21
0
  31
0.826699256897
  12
6.69380426407
  22
0.25
  32
0.995853722095
  13
6.69380426407
  23
0.25
  33
0.995853722095
   0
3DFACE
   8
F1Surf
  10
7.81408119202
  20
-0.5
  30
0.209951743484
  11
7.98453855515
  21
-0.5
  31
0.142964735627
  12
7.81408119202
  22
-0.25
  32
0.209951743484
  13
7.81408119202
  23
-0.25
  33
0.209951743484
   0
3DFACE
   8
F1Surf
  10
7.81408119202
  20
-0.25
  30
0.209951743484
  11
7.98453855515
  21
-0.5
  31
0.142964735627
  12
7.98453855515
  22
-0.25
  32
0.142964735627
  13
7.98453855515
  23
-0.25
  33
0.142964735627
   0
3DFACE
   8
F1Surf
  10
7.98453855515
  20
-0.5
  30
0.142964735627
  11
8.15017986298
  21
-0.5
  31
0.0889875665307
  12
7.98453855515
  22
-0.25
  32
0.142964735627
  13
7.98453855515
  23
-0.25
  33
0.142964735627
   0
3DFACE
   8
F1Surf
  10
7.98453855515
  20
-0.25
  30
0.142964735627
  11
8.15017986298
  21
-0.5
  31
0.0889875665307
  12
8.15017986298
  22
-0.25
  32
0.0889875665307
  13
8.15017986298
  23
-0.25
  33
0.0889875665307
   0
3DFACE
   8
F1Surf
  10
8.15017986298
  20
-0.5
  30
0.0889875665307
  11
8.34761810303
  21
-0.5
  31
0.0
  12
8.15017986298
  22
-0.25
  32
0.0889875665307
  13
8.15017986298
  23
-0.25
  33
0.0889875665307
   0
3DFACE
   8
F1Surf
  10
8.15017986298
  20
-0.25
  30
0.0889875665307
  11
8.34761810303
  21
-0.5
  31
0.0
  12
8.34761810303
  22
-0.25
  32
0.0
  13
8.34761810303
  23
-0.25
  33
0.0
   0
3DFACE
   8
F1Surf
  10
6.4244685173
  20
-0.25
  30
1.20437085629
  11
6.69380426407
  21
-0.25
  31
0.995853722095
  12
6.4244685173
  22
0
  32
1.20437085629
  13
6.4244685173
  23
0
  33
1.20437085629
   0
3DFACE
   8
F1Surf
  10
6.4244685173
  20
0
  30
1.20437085629
  11
6.69380426407
  21
-0.25
  31
0.995853722095
  12
6.69380426407
  22
0
  32
0.995853722095
  13
6.69380426407
  23
0
  33
0.995853722095
   0
3DFACE
   8
F1Surf
  10
6.69380426407
  20
-0.25
  30
0.995853722095
  11
6.91235160828
  21
-0.25
  31
0.826699256897
  12
6.69380426407
  22
0
  32
0.995853722095
  13
6.69380426407
  23
0
  33
0.995853722095
   0
3DFACE
   8
F1Surf
  10
6.69380426407
  20
0
  30
0.995853722095
  11
6.91235160828
  21
-0.25
  31
0.826699256897
  12
6.91235160828
  22
0
  32
0.826699256897
  13
6.91235160828
  23
0
  33
0.826699256897
   0
3DFACE
   8
F1Surf
  10
7.47725296021
  20
0
  30
0.398039191961
  11
7.64344215393
  21
0
  31
0.293733924627
  12
7.47725296021
  22
0.25
  32
0.398039191961
  13
7.47725296021
  23
0.25
  33
0.398039191961
   0
3DFACE
   8
F1Surf
  10
6.91235160828
  20
-0.25
  30
0.826699256897
  11
7.12105321884
  21
-0.25
  31
0.665256679058
  12
6.91235160828
  22
0
  32
0.826699256897
  13
6.91235160828
  23
0
  33
0.826699256897
   0
3DFACE
   8
F1Surf
  10
6.91235160828
  20
0
  30
0.826699256897
  11
7.12105321884
  21
-0.25
  31
0.665256679058
  12
7.12105321884
  22
0
  32
0.665256679058
  13
7.12105321884
  23
0
  33
0.665256679058
   0
3DFACE
   8
F1Surf
  10
6.4244685173
  20
0.25
  30
1.20437085629
  11
6.69380426407
  21
0.25
  31
0.995853722095
  12
6.4244685173
  22
0.5
  32
1.20437085629
  13
6.4244685173
  23
0.5
  33
1.20437085629
   0
3DFACE
   8
F1Surf
  10
7.12105321884
  20
-0.25
  30
0.665256679058
  11
7.30628967285
  21
-0.25
  31
0.522088050842
  12
7.12105321884
  22
0
  32
0.665256679058
  13
7.12105321884
  23
0
  33
0.665256679058
   0
3DFACE
   8
F1Surf
  10
7.12105321884
  20
0
  30
0.665256679058
  11
7.30628967285
  21
-0.25
  31
0.522088050842
  12
7.30628967285
  22
0
  32
0.522088050842
  13
7.30628967285
  23
0
  33
0.522088050842
   0
3DFACE
   8
F1Surf
  10
8.15017986298
  20
0.25
  30
0.0889875665307
  11
8.34761810303
  21
0
  31
0.0
  12
8.34761810303
  22
0.25
  32
0.0
  13
8.34761810303
  23
0.25
  33
0.0
   0
3DFACE
   8
F1Surf
  10
7.30628967285
  20
-0.25
  30
0.522088050842
  11
7.47725296021
  21
-0.25
  31
0.398039191961
  12
7.30628967285
  22
0
  32
0.522088050842
  13
7.30628967285
  23
0
  33
0.522088050842
   0
3DFACE
   8
F1Surf
  10
7.30628967285
  20
0
  30
0.522088050842
  11
7.47725296021
  21
-0.25
  31
0.398039191961
  12
7.47725296021
  22
0
  32
0.398039191961
  13
7.47725296021
  23
0
  33
0.398039191961
   0
3DFACE
   8
F1Surf
  10
7.47725296021
  20
-0.25
  30
0.398039191961
  11
7.64344215393
  21
-0.25
  31
0.293733924627
  12
7.47725296021
  22
0
  32
0.398039191961
  13
7.47725296021
  23
0
  33
0.398039191961
   0
3DFACE
   8
F1Surf
  10
7.47725296021
  20
0
  30
0.398039191961
  11
7.64344215393
  21
-0.25
  31
0.293733924627
  12
7.64344215393
  22
0
  32
0.293733924627
  13
7.64344215393
  23
0
  33
0.293733924627
   0
3DFACE
   8
F1Surf
  10
7.64344215393
  20
-0.25
  30
0.293733924627
  11
7.81408119202
  21
-0.25
  31
0.209951743484
  12
7.64344215393
  22
0
  32
0.293733924627
  13
7.64344215393
  23
0
  33
0.293733924627
   0
3DFACE
   8
F1Surf
  10
7.64344215393
  20
0
  30
0.293733924627
  11
7.81408119202
  21
-0.25
  31
0.209951743484
  12
7.81408119202
  22
0
  32
0.209951743484
  13
7.81408119202
  23
0
  33
0.209951743484
   0
3DFACE
   8
F1Surf
  10
7.81408119202
  20
-0.25
  30
0.209951743484
  11
7.98453855515
  21
-0.25
  31
0.142964735627
  12
7.81408119202
  22
0
  32
0.209951743484
  13
7.81408119202
  23
0
  33
0.209951743484
   0
3DFACE
   8
F1Surf
  10
7.81408119202
  20
0
  30
0.209951743484
  11
7.98453855515
  21
-0.25
  31
0.142964735627
  12
7.98453855515
  22
0
  32
0.142964735627
  13
7.98453855515
  23
0
  33
0.142964735627
   0
3DFACE
   8
F1Surf
  10
7.98453855515
  20
-0.25
  30
0.142964735627
  11
8.15017986298
  21
-0.25
  31
0.0889875665307
  12
7.98453855515
  22
0
  32
0.142964735627
  13
7.98453855515
  23
0
  33
0.142964735627
   0
3DFACE
   8
F1Surf
  10
7.98453855515
  20
0
  30
0.142964735627
  11
8.15017986298
  21
-0.25
  31
0.0889875665307
  12
8.15017986298
  22
0
  32
0.0889875665307
  13
8.15017986298
  23
0
  33
0.0889875665307
   0
3DFACE
   8
F1Surf
  10
8.15017986298
  20
-0.25
  30
0.0889875665307
  11
8.34761810303
  21
-0.25
  31
0.0
  12
8.15017986298
  22
0
  32
0.0889875665307
  13
8.15017986298
  23
0
  33
0.0889875665307
   0
3DFACE
   8
F1Surf
  10
8.15017986298
  20
0
  30
0.0889875665307
  11
8.34761810303
  21
-0.25
  31
0.0
  12
8.34761810303
  22
0
  32
0.0
  13
8.34761810303
  23
0
  33
0.0
   0
3DFACE
   8
F1Surf
  10
6.4244685173
  20
0
  30
1.20437085629
  11
6.69380426407
  21
0
  31
0.995853722095
  12
6.4244685173
  22
0.25
  32
1.20437085629
  13
6.4244685173
  23
0.25
  33
1.20437085629
   0
3DFACE
   8
F1Surf
  10
6.4244685173
  20
0.25
  30
1.20437085629
  11
6.69380426407
  21
0
  31
0.995853722095
  12
6.69380426407
  22
0.25
  32
0.995853722095
  13
6.69380426407
  23
0.25
  33
0.995853722095
   0
3DFACE
   8
F1Surf
  10
6.69380426407
  20
0.25
  30
0.995853722095
  11
6.91235160828
  21
0
  31
0.826699256897
  12
6.91235160828
  22
0.25
  32
0.826699256897
  13
6.91235160828
  23
0.25
  33
0.826699256897
   0
3DFACE
   8
F1Surf
  10
6.91235160828
  20
0
  30
0.826699256897
  11
7.12105321884
  21
0
  31
0.665256679058
  12
6.91235160828
  22
0.25
  32
0.826699256897
  13
6.91235160828
  23
0.25
  33
0.826699256897
   0
3DFACE
   8
F1Surf
  10
6.91235160828
  20
0.25
  30
0.826699256897
  11
7.12105321884
  21
0
  31
0.665256679058
  12
7.12105321884
  22
0.25
  32
0.665256679058
  13
7.12105321884
  23
0.25
  33
0.665256679058
   0
3DFACE
   8
F1Surf
  10
7.12105321884
  20
0
  30
0.665256679058
  11
7.30628967285
  21
0
  31
0.522088050842
  12
7.12105321884
  22
0.25
  32
0.665256679058
  13
7.12105321884
  23
0.25
  33
0.665256679058
   0
3DFACE
   8
F1Surf
  10
7.98453855515
  20
0.5
  30
0.142964735627
  11
8.15017986298
  21
0.25
  31
0.0889875665307
  12
8.15017986298
  22
0.5
  32
0.0889875665307
  13
8.15017986298
  23
0.5
  33
0.0889875665307
   0
3DFACE
   8
F1Surf
  10
7.12105321884
  20
0.25
  30
0.665256679058
  11
7.30628967285
  21
0
  31
0.522088050842
  12
7.30628967285
  22
0.25
  32
0.522088050842
  13
7.30628967285
  23
0.25
  33
0.522088050842
   0
3DFACE
   8
F1Surf
  10
7.30628967285
  20
0
  30
0.522088050842
  11
7.47725296021
  21
0
  31
0.398039191961
  12
7.30628967285
  22
0.25
  32
0.522088050842
  13
7.30628967285
  23
0.25
  33
0.522088050842
   0
3DFACE
   8
F1Surf
  10
7.30628967285
  20
0.25
  30
0.522088050842
  11
7.47725296021
  21
0
  31
0.398039191961
  12
7.47725296021
  22
0.25
  32
0.398039191961
  13
7.47725296021
  23
0.25
  33
0.398039191961
   0
3DFACE
   8
F1Surf
  10
7.47725296021
  20
0.25
  30
0.398039191961
  11
7.64344215393
  21
0
  31
0.293733924627
  12
7.64344215393
  22
0.25
  32
0.293733924627
  13
7.64344215393
  23
0.25
  33
0.293733924627
   0
3DFACE
   8
F1Surf
  10
7.64344215393
  20
0
  30
0.293733924627
  11
7.81408119202
  21
0
  31
0.209951743484
  12
7.64344215393
  22
0.25
  32
0.293733924627
  13
7.64344215393
  23
0.25
  33
0.293733924627
   0
3DFACE
   8
F1Surf
  10
7.64344215393
  20
0.25
  30
0.293733924627
  11
7.81408119202
  21
0
  31
0.209951743484
  12
7.81408119202
  22
0.25
  32
0.209951743484
  13
7.81408119202
  23
0.25
  33
0.209951743484
   0
3DFACE
   8
F1Surf
  10
7.81408119202
  20
0
  30
0.209951743484
  11
7.98453855515
  21
0
  31
0.142964735627
  12
7.81408119202
  22
0.25
  32
0.209951743484
  13
7.81408119202
  23
0.25
  33
0.209951743484
   0
3DFACE
   8
F1Surf
  10
7.81408119202
  20
0.25
  30
0.209951743484
  11
7.98453855515
  21
0
  31
0.142964735627
  12
7.98453855515
  22
0.25
  32
0.142964735627
  13
7.98453855515
  23
0.25
  33
0.142964735627
   0
3DFACE
   8
F1Surf
  10
7.98453855515
  20
0
  30
0.142964735627
  11
8.15017986298
  21
0
  31
0.0889875665307
  12
7.98453855515
  22
0.25
  32
0.142964735627
  13
7.98453855515
  23
0.25
  33
0.142964735627
   0
3DFACE
   8
F1Surf
  10
7.98453855515
  20
0.25
  30
0.142964735627
  11
8.15017986298
  21
0
  31
0.0889875665307
  12
8.15017986298
  22
0.25
  32
0.0889875665307
  13
8.15017986298
  23
0.25
  33
0.0889875665307
   0
3DFACE
   8
F1Surf
  10
8.15017986298
  20
0
  30
0.0889875665307
  11
8.34761810303
  21
0
  31
0.0
  12
8.15017986298
  22
0.25
  32
0.0889875665307
  13
8.15017986298
  23
0.25
  33
0.0889875665307
   0
3DFACE
   8
F1Surf
  10
6.4244685173
  20
0.5
  30
1.20437085629
  11
6.69380426407
  21
0.25
  31
0.995853722095
  12
6.69380426407
  22
0.5
  32
0.995853722095
  13
6.69380426407
  23
0.5
  33
0.995853722095
   0
3DFACE
   8
F1Surf
  10
6.69380426407
  20
0.25
  30
0.995853722095
  11
6.91235160828
  21
0.25
  31
0.826699256897
  12
6.69380426407
  22
0.5
  32
0.995853722095
  13
6.69380426407
  23
0.5
  33
0.995853722095
   0
3DFACE
   8
F1Surf
  10
6.69380426407
  20
0.5
  30
0.995853722095
  11
6.91235160828
  21
0.25
  31
0.826699256897
  12
6.91235160828
  22
0.5
  32
0.826699256897
  13
6.91235160828
  23
0.5
  33
0.826699256897
   0
3DFACE
   8
F1Surf
  10
6.91235160828
  20
0.25
  30
0.826699256897
  11
7.12105321884
  21
0.25
  31
0.665256679058
  12
6.91235160828
  22
0.5
  32
0.826699256897
  13
6.91235160828
  23
0.5
  33
0.826699256897
   0
3DFACE
   8
F1Surf
  10
6.91235160828
  20
0.5
  30
0.826699256897
  11
7.12105321884
  21
0.25
  31
0.665256679058
  12
7.12105321884
  22
0.5
  32
0.665256679058
  13
7.12105321884
  23
0.5
  33
0.665256679058
   0
3DFACE
   8
F1Surf
  10
7.12105321884
  20
0.25
  30
0.665256679058
  11
7.30628967285
  21
0.25
  31
0.522088050842
  12
7.12105321884
  22
0.5
  32
0.665256679058
  13
7.12105321884
  23
0.5
  33
0.665256679058
   0
3DFACE
   8
F1Surf
  10
7.12105321884
  20
0.5
  30
0.665256679058
  11
7.30628967285
  21
0.25
  31
0.522088050842
  12
7.30628967285
  22
0.5
  32
0.522088050842
  13
7.30628967285
  23
0.5
  33
0.522088050842
   0
3DFACE
   8
F1Surf
  10
7.30628967285
  20
0.25
  30
0.522088050842
  11
7.47725296021
  21
0.25
  31
0.398039191961
  12
7.30628967285
  22
0.5
  32
0.522088050842
  13
7.30628967285
  23
0.5
  33
0.522088050842
   0
3DFACE
   8
F1Surf
  10
7.30628967285
  20
0.5
  30
0.522088050842
  11
7.47725296021
  21
0.25
  31
0.398039191961
  12
7.47725296021
  22
0.5
  32
0.398039191961
  13
7.47725296021
  23
0.5
  33
0.398039191961
   0
3DFACE
   8
F1Surf
  10
7.47725296021
  20
0.5
  30
0.398039191961
  11
7.64344215393
  21
0.25
  31
0.293733924627
  12
7.64344215393
  22
0.5
  32
0.293733924627
  13
7.64344215393
  23
0.5
  33
0.293733924627
   0
3DFACE
   8
F1Surf
  10
7.64344215393
  20
0.25
  30
0.293733924627
  11
7.81408119202
  21
0.25
  31
0.209951743484
  12
7.64344215393
  22
0.5
  32
0.293733924627
  13
7.64344215393
  23
0.5
  33
0.293733924627
   0
3DFACE
   8
F1Surf
  10
7.64344215393
  20
0.5
  30
0.293733924627
  11
7.81408119202
  21
0.25
  31
0.209951743484
  12
7.81408119202
  22
0.5
  32
0.209951743484
  13
7.81408119202
  23
0.5
  33
0.209951743484
   0
3DFACE
   8
F1Surf
  10
7.81408119202
  20
0.25
  30
0.209951743484
  11
7.98453855515
  21
0.25
  31
0.142964735627
  12
7.81408119202
  22
0.5
  32
0.209951743484
  13
7.81408119202
  23
0.5
  33
0.209951743484
   0
3DFACE
   8
F1Surf
  10
7.81408119202
  20
0.5
  30
0.209951743484
  11
7.98453855515
  21
0.25
  31
0.142964735627
  12
7.98453855515
  22
0.5
  32
0.142964735627
  13
7.98453855515
  23
0.5
  33
0.142964735627
   0
3DFACE
   8
F1Surf
  10
8.15017986298
  20
0.25
  30
0.0889875665307
  11
8.34761810303
  21
0.25
  31
0.0
  12
8.15017986298
  22
0.5
  32
0.0889875665307
  13
8.15017986298
  23
0.5
  33
0.0889875665307
   0
3DFACE
   8
F1Surf
  10
8.15017986298
  20
0.5
  30
0.0889875665307
  11
8.34761810303
  21
0.25
  31
0.0
  12
8.34761810303
  22
0.5
  32
0.0
  13
8.34761810303
  23
0.5
  33
0.0
   0
ENDSEC
   0
EOF
