   0
SECTION
   2
ENTITIES
   0
3DFACE
   8
F2Surf
  10
12.857301712
  20
-0.5
  30
2.7279548645
  11
12.6523303986
  21
-0.5
  31
2.65067529678
  12
12.857301712
  22
-0.333333313465
  32
2.7279548645
  13
12.857301712
  23
-0.333333313465
  33
2.7279548645
   0
3DFACE
   8
F2Surf
  10
12.4835147858
  20
-0.333333313465
  30
2.59008526802
  11
12.3161449432
  21
-0.333333313465
  31
2.52831935883
  12
12.4835147858
  22
-0.166666641831
  32
2.59008526802
  13
12.4835147858
  23
-0.166666641831
  33
2.59008526802
   0
3DFACE
   8
F2Surf
  10
12.857301712
  20
-0.333333313465
  30
2.7279548645
  11
12.6523303986
  21
-0.5
  31
2.65067529678
  12
12.6523303986
  22
-0.333333313465
  32
2.65067529678
  13
12.6523303986
  23
-0.333333313465
  33
2.65067529678
   0
3DFACE
   8
F2Surf
  10
12.6523303986
  20
-0.5
  30
2.65067529678
  11
12.4835147858
  21
-0.5
  31
2.59008526802
  12
12.6523303986
  22
-0.333333313465
  32
2.65067529678
  13
12.6523303986
  23
-0.333333313465
  33
2.65067529678
   0
3DFACE
   8
F2Surf
  10
11.5972595215
  20
-0.5
  30
1.83916854858
  11
11.4979104996
  21
-0.5
  31
1.69684207439
  12
11.5972595215
  22
-0.333333313465
  32
1.83916854858
  13
11.5972595215
  23
-0.333333313465
  33
1.83916854858
   0
3DFACE
   8
F2Surf
  10
12.6523303986
  20
-0.333333313465
  30
2.65067529678
  11
12.4835147858
  21
-0.5
  31
2.59008526802
  12
12.4835147858
  22
-0.333333313465
  32
2.59008526802
  13
12.4835147858
  23
-0.333333313465
  33
2.59008526802
   0
3DFACE
   8
F2Surf
  10
12.4835147858
  20
-0.5
  30
2.59008526802
  11
12.3161449432
  21
-0.5
  31
2.52831935883
  12
12.4835147858
  22
-0.333333313465
  32
2.59008526802
  13
12.4835147858
  23
-0.333333313465
  33
2.59008526802
   0
3DFACE
   8
F2Surf
  10
12.4835147858
  20
-0.333333313465
  30
2.59008526802
  11
12.3161449432
  21
-0.5
  31
2.52831935883
  12
12.3161449432
  22
-0.333333313465
  32
2.52831935883
  13
12.3161449432
  23
-0.333333313465
  33
2.52831935883
   0
3DFACE
   8
F2Surf
  10
11.7309474945
  20
-0.333333313465
  30
2.08641147614
  11
11.6673088074
  21
-0.333333313465
  31
1.95634651184
  12
11.7309474945
  22
-0.166666641831
  32
2.08641147614
  13
11.7309474945
  23
-0.166666641831
  33
2.08641147614
   0
3DFACE
   8
F2Surf
  10
12.3161449432
  20
-0.5
  30
2.52831935883
  11
12.1574516296
  21
-0.5
  31
2.46240568161
  12
12.3161449432
  22
-0.333333313465
  32
2.52831935883
  13
12.3161449432
  23
-0.333333313465
  33
2.52831935883
   0
3DFACE
   8
F2Surf
  10
12.3161449432
  20
-0.333333313465
  30
2.52831935883
  11
12.1574516296
  21
-0.5
  31
2.46240568161
  12
12.1574516296
  22
-0.333333313465
  32
2.46240568161
  13
12.1574516296
  23
-0.333333313465
  33
2.46240568161
   0
3DFACE
   8
F2Surf
  10
11.2234544754
  20
-0.166666641831
  30
1.37682259083
  11
11.0902109146
  21
-0.333333313465
  31
1.28783798218
  12
11.0902109146
  22
-0.166666641831
  32
1.28783798218
  13
11.0902109146
  23
-0.166666641831
  33
1.28783798218
   0
3DFACE
   8
F2Surf
  10
12.1574516296
  20
-0.5
  30
2.46240568161
  11
12.0152759552
  21
-0.5
  31
2.39002275467
  12
12.1574516296
  22
-0.333333313465
  32
2.46240568161
  13
12.1574516296
  23
-0.333333313465
  33
2.46240568161
   0
3DFACE
   8
F2Surf
  10
12.1574516296
  20
-0.333333313465
  30
2.46240568161
  11
12.0152759552
  21
-0.5
  31
2.39002275467
  12
12.0152759552
  22
-0.333333313465
  32
2.39002275467
  13
12.0152759552
  23
-0.333333313465
  33
2.39002275467
   0
3DFACE
   8
F2Surf
  10
11.5972595215
  20
-0.333333313465
  30
1.83916854858
  11
11.4979104996
  21
-0.333333313465
  31
1.69684207439
  12
11.5972595215
  22
-0.166666641831
  32
1.83916854858
  13
11.5972595215
  23
-0.166666641831
  33
1.83916854858
   0
3DFACE
   8
F2Surf
  10
12.0152759552
  20
-0.5
  30
2.39002275467
  11
11.8972740173
  21
-0.5
  31
2.30863714218
  12
12.0152759552
  22
-0.333333313465
  32
2.39002275467
  13
12.0152759552
  23
-0.333333313465
  33
2.39002275467
   0
3DFACE
   8
F2Surf
  10
11.7309474945
  20
0.33333337307
  30
2.08641147614
  11
11.6673088074
  21
0.33333337307
  31
1.95634651184
  12
11.7309474945
  22
0.5
  32
2.08641147614
  13
11.7309474945
  23
0.5
  33
2.08641147614
   0
3DFACE
   8
F2Surf
  10
11.3465328217
  20
-0.333333313465
  30
1.49140107632
  11
11.2234544754
  21
-0.333333313465
  31
1.37682259083
  12
11.3465328217
  22
-0.166666641831
  32
1.49140107632
  13
11.3465328217
  23
-0.166666641831
  33
1.49140107632
   0
3DFACE
   8
F2Surf
  10
12.0152759552
  20
-0.333333313465
  30
2.39002275467
  11
11.8972740173
  21
-0.5
  31
2.30863714218
  12
11.8972740173
  22
-0.333333313465
  32
2.30863714218
  13
11.8972740173
  23
-0.333333313465
  33
2.30863714218
   0
3DFACE
   8
F2Surf
  10
11.5972595215
  20
0.33333337307
  30
1.83916854858
  11
11.4979104996
  21
0.33333337307
  31
1.69684207439
  12
11.5972595215
  22
0.5
  32
1.83916854858
  13
11.5972595215
  23
0.5
  33
1.83916854858
   0
3DFACE
   8
F2Surf
  10
12.6523303986
  20
0.166666701436
  30
2.65067529678
  11
12.4835147858
  21
2.98023223877e-08
  31
2.59008526802
  12
12.4835147858
  22
0.166666701436
  32
2.59008526802
  13
12.4835147858
  23
0.166666701436
  33
2.59008526802
   0
3DFACE
   8
F2Surf
  10
11.8972740173
  20
-0.5
  30
2.30863714218
  11
11.8027982712
  21
-0.5
  31
2.21023321152
  12
11.8972740173
  22
-0.333333313465
  32
2.30863714218
  13
11.8972740173
  23
-0.333333313465
  33
2.30863714218
   0
3DFACE
   8
F2Surf
  10
11.8972740173
  20
-0.333333313465
  30
2.30863714218
  11
11.8027982712
  21
-0.5
  31
2.21023321152
  12
11.8027982712
  22
-0.333333313465
  32
2.21023321152
  13
11.8027982712
  23
-0.333333313465
  33
2.21023321152
   0
3DFACE
   8
F2Surf
  10
12.0152759552
  20
0.5
  30
2.39002275467
  11
11.8972740173
  21
0.33333337307
  31
2.30863714218
  12
11.8972740173
  22
0.5
  32
2.30863714218
  13
11.8972740173
  23
0.5
  33
2.30863714218
   0
3DFACE
   8
F2Surf
  10
11.8027982712
  20
-0.5
  30
2.21023321152
  11
11.7309474945
  21
-0.5
  31
2.08641147614
  12
11.8027982712
  22
-0.333333313465
  32
2.21023321152
  13
11.8027982712
  23
-0.333333313465
  33
2.21023321152
   0
3DFACE
   8
F2Surf
  10
12.3161449432
  20
0.5
  30
2.52831935883
  11
12.1574516296
  21
0.33333337307
  31
2.46240568161
  12
12.1574516296
  22
0.5
  32
2.46240568161
  13
12.1574516296
  23
0.5
  33
2.46240568161
   0
3DFACE
   8
F2Surf
  10
11.4979104996
  20
0.166666701436
  30
1.69684207439
  11
11.3465328217
  21
0.166666701436
  31
1.49140107632
  12
11.4979104996
  22
0.33333337307
  32
1.69684207439
  13
11.4979104996
  23
0.33333337307
  33
1.69684207439
   0
3DFACE
   8
F2Surf
  10
12.1574516296
  20
-0.166666641831
  30
2.46240568161
  11
12.0152759552
  21
-0.166666641831
  31
2.39002275467
  12
12.1574516296
  22
2.98023223877e-08
  32
2.46240568161
  13
12.1574516296
  23
2.98023223877e-08
  33
2.46240568161
   0
3DFACE
   8
F2Surf
  10
11.4979104996
  20
-0.166666641831
  30
1.69684207439
  11
11.3465328217
  21
-0.333333313465
  31
1.49140107632
  12
11.3465328217
  22
-0.166666641831
  32
1.49140107632
  13
11.3465328217
  23
-0.166666641831
  33
1.49140107632
   0
3DFACE
   8
F2Surf
  10
11.8027982712
  20
-0.333333313465
  30
2.21023321152
  11
11.7309474945
  21
-0.5
  31
2.08641147614
  12
11.7309474945
  22
-0.333333313465
  32
2.08641147614
  13
11.7309474945
  23
-0.333333313465
  33
2.08641147614
   0
3DFACE
   8
F2Surf
  10
12.1574516296
  20
-0.333333313465
  30
2.46240568161
  11
12.0152759552
  21
-0.333333313465
  31
2.39002275467
  12
12.1574516296
  22
-0.166666641831
  32
2.46240568161
  13
12.1574516296
  23
-0.166666641831
  33
2.46240568161
   0
3DFACE
   8
F2Surf
  10
11.7309474945
  20
-0.5
  30
2.08641147614
  11
11.6673088074
  21
-0.5
  31
1.95634651184
  12
11.7309474945
  22
-0.333333313465
  32
2.08641147614
  13
11.7309474945
  23
-0.333333313465
  33
2.08641147614
   0
3DFACE
   8
F2Surf
  10
12.6523303986
  20
2.98023223877e-08
  30
2.65067529678
  11
12.4835147858
  21
-0.166666641831
  31
2.59008526802
  12
12.4835147858
  22
2.98023223877e-08
  32
2.59008526802
  13
12.4835147858
  23
2.98023223877e-08
  33
2.59008526802
   0
3DFACE
   8
F2Surf
  10
11.7309474945
  20
-0.333333313465
  30
2.08641147614
  11
11.6673088074
  21
-0.5
  31
1.95634651184
  12
11.6673088074
  22
-0.333333313465
  32
1.95634651184
  13
11.6673088074
  23
-0.333333313465
  33
1.95634651184
   0
3DFACE
   8
F2Surf
  10
12.6523303986
  20
0.33333337307
  30
2.65067529678
  11
12.4835147858
  21
0.33333337307
  31
2.59008526802
  12
12.6523303986
  22
0.5
  32
2.65067529678
  13
12.6523303986
  23
0.5
  33
2.65067529678
   0
3DFACE
   8
F2Surf
  10
11.6673088074
  20
-0.5
  30
1.95634651184
  11
11.5972595215
  21
-0.5
  31
1.83916854858
  12
11.6673088074
  22
-0.333333313465
  32
1.95634651184
  13
11.6673088074
  23
-0.333333313465
  33
1.95634651184
   0
3DFACE
   8
F2Surf
  10
11.8972740173
  20
-0.333333313465
  30
2.30863714218
  11
11.8027982712
  21
-0.333333313465
  31
2.21023321152
  12
11.8972740173
  22
-0.166666641831
  32
2.30863714218
  13
11.8972740173
  23
-0.166666641831
  33
2.30863714218
   0
3DFACE
   8
F2Surf
  10
11.6673088074
  20
-0.333333313465
  30
1.95634651184
  11
11.5972595215
  21
-0.5
  31
1.83916854858
  12
11.5972595215
  22
-0.333333313465
  32
1.83916854858
  13
11.5972595215
  23
-0.333333313465
  33
1.83916854858
   0
3DFACE
   8
F2Surf
  10
11.8027982712
  20
2.98023223877e-08
  30
2.21023321152
  11
11.7309474945
  21
-0.166666641831
  31
2.08641147614
  12
11.7309474945
  22
2.98023223877e-08
  32
2.08641147614
  13
11.7309474945
  23
2.98023223877e-08
  33
2.08641147614
   0
3DFACE
   8
F2Surf
  10
11.5972595215
  20
-0.333333313465
  30
1.83916854858
  11
11.4979104996
  21
-0.5
  31
1.69684207439
  12
11.4979104996
  22
-0.333333313465
  32
1.69684207439
  13
11.4979104996
  23
-0.333333313465
  33
1.69684207439
   0
3DFACE
   8
F2Surf
  10
11.4979104996
  20
-0.5
  30
1.69684207439
  11
11.3465328217
  21
-0.5
  31
1.49140107632
  12
11.4979104996
  22
-0.333333313465
  32
1.69684207439
  13
11.4979104996
  23
-0.333333313465
  33
1.69684207439
   0
3DFACE
   8
F2Surf
  10
11.5972595215
  20
-0.166666641831
  30
1.83916854858
  11
11.4979104996
  21
-0.166666641831
  31
1.69684207439
  12
11.5972595215
  22
2.98023223877e-08
  32
1.83916854858
  13
11.5972595215
  23
2.98023223877e-08
  33
1.83916854858
   0
3DFACE
   8
F2Surf
  10
11.4979104996
  20
-0.333333313465
  30
1.69684207439
  11
11.3465328217
  21
-0.5
  31
1.49140107632
  12
11.3465328217
  22
-0.333333313465
  32
1.49140107632
  13
11.3465328217
  23
-0.333333313465
  33
1.49140107632
   0
3DFACE
   8
F2Surf
  10
11.8972740173
  20
0.166666701436
  30
2.30863714218
  11
11.8027982712
  21
2.98023223877e-08
  31
2.21023321152
  12
11.8027982712
  22
0.166666701436
  32
2.21023321152
  13
11.8027982712
  23
0.166666701436
  33
2.21023321152
   0
3DFACE
   8
F2Surf
  10
11.3465328217
  20
-0.5
  30
1.49140107632
  11
11.2234544754
  21
-0.5
  31
1.37682259083
  12
11.3465328217
  22
-0.333333313465
  32
1.49140107632
  13
11.3465328217
  23
-0.333333313465
  33
1.49140107632
   0
3DFACE
   8
F2Surf
  10
12.1574516296
  20
0.5
  30
2.46240568161
  11
12.0152759552
  21
0.33333337307
  31
2.39002275467
  12
12.0152759552
  22
0.5
  32
2.39002275467
  13
12.0152759552
  23
0.5
  33
2.39002275467
   0
3DFACE
   8
F2Surf
  10
11.3465328217
  20
-0.166666641831
  30
1.49140107632
  11
11.2234544754
  21
-0.166666641831
  31
1.37682259083
  12
11.3465328217
  22
2.98023223877e-08
  32
1.49140107632
  13
11.3465328217
  23
2.98023223877e-08
  33
1.49140107632
   0
3DFACE
   8
F2Surf
  10
11.3465328217
  20
-0.333333313465
  30
1.49140107632
  11
11.2234544754
  21
-0.5
  31
1.37682259083
  12
11.2234544754
  22
-0.333333313465
  32
1.37682259083
  13
11.2234544754
  23
-0.333333313465
  33
1.37682259083
   0
3DFACE
   8
F2Surf
  10
11.4979104996
  20
0.5
  30
1.69684207439
  11
11.3465328217
  21
0.33333337307
  31
1.49140107632
  12
11.3465328217
  22
0.5
  32
1.49140107632
  13
11.3465328217
  23
0.5
  33
1.49140107632
   0
3DFACE
   8
F2Surf
  10
12.0152759552
  20
2.98023223877e-08
  30
2.39002275467
  11
11.8972740173
  21
2.98023223877e-08
  31
2.30863714218
  12
12.0152759552
  22
0.166666701436
  32
2.39002275467
  13
12.0152759552
  23
0.166666701436
  33
2.39002275467
   0
3DFACE
   8
F2Surf
  10
11.2234544754
  20
-0.5
  30
1.37682259083
  11
11.0902109146
  21
-0.5
  31
1.28783798218
  12
11.2234544754
  22
-0.333333313465
  32
1.37682259083
  13
11.2234544754
  23
-0.333333313465
  33
1.37682259083
   0
3DFACE
   8
F2Surf
  10
11.2234544754
  20
-0.333333313465
  30
1.37682259083
  11
11.0902109146
  21
-0.5
  31
1.28783798218
  12
11.0902109146
  22
-0.333333313465
  32
1.28783798218
  13
11.0902109146
  23
-0.333333313465
  33
1.28783798218
   0
3DFACE
   8
F2Surf
  10
12.857301712
  20
-0.333333313465
  30
2.7279548645
  11
12.6523303986
  21
-0.333333313465
  31
2.65067529678
  12
12.857301712
  22
-0.166666641831
  32
2.7279548645
  13
12.857301712
  23
-0.166666641831
  33
2.7279548645
   0
3DFACE
   8
F2Surf
  10
12.857301712
  20
-0.166666641831
  30
2.7279548645
  11
12.6523303986
  21
-0.333333313465
  31
2.65067529678
  12
12.6523303986
  22
-0.166666641831
  32
2.65067529678
  13
12.6523303986
  23
-0.166666641831
  33
2.65067529678
   0
3DFACE
   8
F2Surf
  10
12.6523303986
  20
-0.333333313465
  30
2.65067529678
  11
12.4835147858
  21
-0.333333313465
  31
2.59008526802
  12
12.6523303986
  22
-0.166666641831
  32
2.65067529678
  13
12.6523303986
  23
-0.166666641831
  33
2.65067529678
   0
3DFACE
   8
F2Surf
  10
12.6523303986
  20
-0.166666641831
  30
2.65067529678
  11
12.4835147858
  21
-0.333333313465
  31
2.59008526802
  12
12.4835147858
  22
-0.166666641831
  32
2.59008526802
  13
12.4835147858
  23
-0.166666641831
  33
2.59008526802
   0
3DFACE
   8
F2Surf
  10
12.0152759552
  20
0.166666701436
  30
2.39002275467
  11
11.8972740173
  21
0.166666701436
  31
2.30863714218
  12
12.0152759552
  22
0.33333337307
  32
2.39002275467
  13
12.0152759552
  23
0.33333337307
  33
2.39002275467
   0
3DFACE
   8
F2Surf
  10
12.4835147858
  20
-0.166666641831
  30
2.59008526802
  11
12.3161449432
  21
-0.333333313465
  31
2.52831935883
  12
12.3161449432
  22
-0.166666641831
  32
2.52831935883
  13
12.3161449432
  23
-0.166666641831
  33
2.52831935883
   0
3DFACE
   8
F2Surf
  10
12.3161449432
  20
-0.333333313465
  30
2.52831935883
  11
12.1574516296
  21
-0.333333313465
  31
2.46240568161
  12
12.3161449432
  22
-0.166666641831
  32
2.52831935883
  13
12.3161449432
  23
-0.166666641831
  33
2.52831935883
   0
3DFACE
   8
F2Surf
  10
12.3161449432
  20
-0.166666641831
  30
2.52831935883
  11
12.1574516296
  21
-0.333333313465
  31
2.46240568161
  12
12.1574516296
  22
-0.166666641831
  32
2.46240568161
  13
12.1574516296
  23
-0.166666641831
  33
2.46240568161
   0
3DFACE
   8
F2Surf
  10
12.1574516296
  20
-0.166666641831
  30
2.46240568161
  11
12.0152759552
  21
-0.333333313465
  31
2.39002275467
  12
12.0152759552
  22
-0.166666641831
  32
2.39002275467
  13
12.0152759552
  23
-0.166666641831
  33
2.39002275467
   0
3DFACE
   8
F2Surf
  10
12.0152759552
  20
-0.333333313465
  30
2.39002275467
  11
11.8972740173
  21
-0.333333313465
  31
2.30863714218
  12
12.0152759552
  22
-0.166666641831
  32
2.39002275467
  13
12.0152759552
  23
-0.166666641831
  33
2.39002275467
   0
3DFACE
   8
F2Surf
  10
11.7309474945
  20
0.166666701436
  30
2.08641147614
  11
11.6673088074
  21
2.98023223877e-08
  31
1.95634651184
  12
11.6673088074
  22
0.166666701436
  32
1.95634651184
  13
11.6673088074
  23
0.166666701436
  33
1.95634651184
   0
3DFACE
   8
F2Surf
  10
12.0152759552
  20
-0.166666641831
  30
2.39002275467
  11
11.8972740173
  21
-0.333333313465
  31
2.30863714218
  12
11.8972740173
  22
-0.166666641831
  32
2.30863714218
  13
11.8972740173
  23
-0.166666641831
  33
2.30863714218
   0
3DFACE
   8
F2Surf
  10
11.8972740173
  20
-0.166666641831
  30
2.30863714218
  11
11.8027982712
  21
-0.333333313465
  31
2.21023321152
  12
11.8027982712
  22
-0.166666641831
  32
2.21023321152
  13
11.8027982712
  23
-0.166666641831
  33
2.21023321152
   0
3DFACE
   8
F2Surf
  10
11.8027982712
  20
-0.333333313465
  30
2.21023321152
  11
11.7309474945
  21
-0.333333313465
  31
2.08641147614
  12
11.8027982712
  22
-0.166666641831
  32
2.21023321152
  13
11.8027982712
  23
-0.166666641831
  33
2.21023321152
   0
3DFACE
   8
F2Surf
  10
11.8027982712
  20
-0.166666641831
  30
2.21023321152
  11
11.7309474945
  21
-0.333333313465
  31
2.08641147614
  12
11.7309474945
  22
-0.166666641831
  32
2.08641147614
  13
11.7309474945
  23
-0.166666641831
  33
2.08641147614
   0
3DFACE
   8
F2Surf
  10
11.7309474945
  20
-0.166666641831
  30
2.08641147614
  11
11.6673088074
  21
-0.333333313465
  31
1.95634651184
  12
11.6673088074
  22
-0.166666641831
  32
1.95634651184
  13
11.6673088074
  23
-0.166666641831
  33
1.95634651184
   0
3DFACE
   8
F2Surf
  10
11.6673088074
  20
-0.333333313465
  30
1.95634651184
  11
11.5972595215
  21
-0.333333313465
  31
1.83916854858
  12
11.6673088074
  22
-0.166666641831
  32
1.95634651184
  13
11.6673088074
  23
-0.166666641831
  33
1.95634651184
   0
3DFACE
   8
F2Surf
  10
11.6673088074
  20
-0.166666641831
  30
1.95634651184
  11
11.5972595215
  21
-0.333333313465
  31
1.83916854858
  12
11.5972595215
  22
-0.166666641831
  32
1.83916854858
  13
11.5972595215
  23
-0.166666641831
  33
1.83916854858
   0
3DFACE
   8
F2Surf
  10
12.857301712
  20
0.166666701436
  30
2.7279548645
  11
12.6523303986
  21
0.166666701436
  31
2.65067529678
  12
12.857301712
  22
0.33333337307
  32
2.7279548645
  13
12.857301712
  23
0.33333337307
  33
2.7279548645
   0
3DFACE
   8
F2Surf
  10
11.5972595215
  20
-0.166666641831
  30
1.83916854858
  11
11.4979104996
  21
-0.333333313465
  31
1.69684207439
  12
11.4979104996
  22
-0.166666641831
  32
1.69684207439
  13
11.4979104996
  23
-0.166666641831
  33
1.69684207439
   0
3DFACE
   8
F2Surf
  10
11.4979104996
  20
-0.333333313465
  30
1.69684207439
  11
11.3465328217
  21
-0.333333313465
  31
1.49140107632
  12
11.4979104996
  22
-0.166666641831
  32
1.69684207439
  13
11.4979104996
  23
-0.166666641831
  33
1.69684207439
   0
3DFACE
   8
F2Surf
  10
11.3465328217
  20
-0.166666641831
  30
1.49140107632
  11
11.2234544754
  21
-0.333333313465
  31
1.37682259083
  12
11.2234544754
  22
-0.166666641831
  32
1.37682259083
  13
11.2234544754
  23
-0.166666641831
  33
1.37682259083
   0
3DFACE
   8
F2Surf
  10
11.2234544754
  20
-0.333333313465
  30
1.37682259083
  11
11.0902109146
  21
-0.333333313465
  31
1.28783798218
  12
11.2234544754
  22
-0.166666641831
  32
1.37682259083
  13
11.2234544754
  23
-0.166666641831
  33
1.37682259083
   0
3DFACE
   8
F2Surf
  10
12.857301712
  20
-0.166666641831
  30
2.7279548645
  11
12.6523303986
  21
-0.166666641831
  31
2.65067529678
  12
12.857301712
  22
2.98023223877e-08
  32
2.7279548645
  13
12.857301712
  23
2.98023223877e-08
  33
2.7279548645
   0
3DFACE
   8
F2Surf
  10
12.857301712
  20
2.98023223877e-08
  30
2.7279548645
  11
12.6523303986
  21
-0.166666641831
  31
2.65067529678
  12
12.6523303986
  22
2.98023223877e-08
  32
2.65067529678
  13
12.6523303986
  23
2.98023223877e-08
  33
2.65067529678
   0
3DFACE
   8
F2Surf
  10
11.5972595215
  20
0.166666701436
  30
1.83916854858
  11
11.4979104996
  21
2.98023223877e-08
  31
1.69684207439
  12
11.4979104996
  22
0.166666701436
  32
1.69684207439
  13
11.4979104996
  23
0.166666701436
  33
1.69684207439
   0
3DFACE
   8
F2Surf
  10
12.6523303986
  20
-0.166666641831
  30
2.65067529678
  11
12.4835147858
  21
-0.166666641831
  31
2.59008526802
  12
12.6523303986
  22
2.98023223877e-08
  32
2.65067529678
  13
12.6523303986
  23
2.98023223877e-08
  33
2.65067529678
   0
3DFACE
   8
F2Surf
  10
12.0152759552
  20
0.33333337307
  30
2.39002275467
  11
11.8972740173
  21
0.33333337307
  31
2.30863714218
  12
12.0152759552
  22
0.5
  32
2.39002275467
  13
12.0152759552
  23
0.5
  33
2.39002275467
   0
3DFACE
   8
F2Surf
  10
12.4835147858
  20
-0.166666641831
  30
2.59008526802
  11
12.3161449432
  21
-0.166666641831
  31
2.52831935883
  12
12.4835147858
  22
2.98023223877e-08
  32
2.59008526802
  13
12.4835147858
  23
2.98023223877e-08
  33
2.59008526802
   0
3DFACE
   8
F2Surf
  10
12.4835147858
  20
2.98023223877e-08
  30
2.59008526802
  11
12.3161449432
  21
-0.166666641831
  31
2.52831935883
  12
12.3161449432
  22
2.98023223877e-08
  32
2.52831935883
  13
12.3161449432
  23
2.98023223877e-08
  33
2.52831935883
   0
3DFACE
   8
F2Surf
  10
11.5972595215
  20
0.33333337307
  30
1.83916854858
  11
11.4979104996
  21
0.166666701436
  31
1.69684207439
  12
11.4979104996
  22
0.33333337307
  32
1.69684207439
  13
11.4979104996
  23
0.33333337307
  33
1.69684207439
   0
3DFACE
   8
F2Surf
  10
11.8027982712
  20
0.33333337307
  30
2.21023321152
  11
11.7309474945
  21
0.166666701436
  31
2.08641147614
  12
11.7309474945
  22
0.33333337307
  32
2.08641147614
  13
11.7309474945
  23
0.33333337307
  33
2.08641147614
   0
3DFACE
   8
F2Surf
  10
12.3161449432
  20
-0.166666641831
  30
2.52831935883
  11
12.1574516296
  21
-0.166666641831
  31
2.46240568161
  12
12.3161449432
  22
2.98023223877e-08
  32
2.52831935883
  13
12.3161449432
  23
2.98023223877e-08
  33
2.52831935883
   0
3DFACE
   8
F2Surf
  10
12.3161449432
  20
2.98023223877e-08
  30
2.52831935883
  11
12.1574516296
  21
-0.166666641831
  31
2.46240568161
  12
12.1574516296
  22
2.98023223877e-08
  32
2.46240568161
  13
12.1574516296
  23
2.98023223877e-08
  33
2.46240568161
   0
3DFACE
   8
F2Surf
  10
11.6673088074
  20
0.33333337307
  30
1.95634651184
  11
11.5972595215
  21
0.33333337307
  31
1.83916854858
  12
11.6673088074
  22
0.5
  32
1.95634651184
  13
11.6673088074
  23
0.5
  33
1.95634651184
   0
3DFACE
   8
F2Surf
  10
12.1574516296
  20
2.98023223877e-08
  30
2.46240568161
  11
12.0152759552
  21
-0.166666641831
  31
2.39002275467
  12
12.0152759552
  22
2.98023223877e-08
  32
2.39002275467
  13
12.0152759552
  23
2.98023223877e-08
  33
2.39002275467
   0
3DFACE
   8
F2Surf
  10
12.1574516296
  20
0.33333337307
  30
2.46240568161
  11
12.0152759552
  21
0.33333337307
  31
2.39002275467
  12
12.1574516296
  22
0.5
  32
2.46240568161
  13
12.1574516296
  23
0.5
  33
2.46240568161
   0
3DFACE
   8
F2Surf
  10
11.3465328217
  20
0.33333337307
  30
1.49140107632
  11
11.2234544754
  21
0.166666701436
  31
1.37682259083
  12
11.2234544754
  22
0.33333337307
  32
1.37682259083
  13
11.2234544754
  23
0.33333337307
  33
1.37682259083
   0
3DFACE
   8
F2Surf
  10
12.4835147858
  20
0.166666701436
  30
2.59008526802
  11
12.3161449432
  21
0.166666701436
  31
2.52831935883
  12
12.4835147858
  22
0.33333337307
  32
2.59008526802
  13
12.4835147858
  23
0.33333337307
  33
2.59008526802
   0
3DFACE
   8
F2Surf
  10
12.0152759552
  20
-0.166666641831
  30
2.39002275467
  11
11.8972740173
  21
-0.166666641831
  31
2.30863714218
  12
12.0152759552
  22
2.98023223877e-08
  32
2.39002275467
  13
12.0152759552
  23
2.98023223877e-08
  33
2.39002275467
   0
3DFACE
   8
F2Surf
  10
12.0152759552
  20
2.98023223877e-08
  30
2.39002275467
  11
11.8972740173
  21
-0.166666641831
  31
2.30863714218
  12
11.8972740173
  22
2.98023223877e-08
  32
2.30863714218
  13
11.8972740173
  23
2.98023223877e-08
  33
2.30863714218
   0
3DFACE
   8
F2Surf
  10
11.8972740173
  20
0.5
  30
2.30863714218
  11
11.8027982712
  21
0.33333337307
  31
2.21023321152
  12
11.8027982712
  22
0.5
  32
2.21023321152
  13
11.8027982712
  23
0.5
  33
2.21023321152
   0
3DFACE
   8
F2Surf
  10
11.8972740173
  20
-0.166666641831
  30
2.30863714218
  11
11.8027982712
  21
-0.166666641831
  31
2.21023321152
  12
11.8972740173
  22
2.98023223877e-08
  32
2.30863714218
  13
11.8972740173
  23
2.98023223877e-08
  33
2.30863714218
   0
3DFACE
   8
F2Surf
  10
11.8972740173
  20
2.98023223877e-08
  30
2.30863714218
  11
11.8027982712
  21
-0.166666641831
  31
2.21023321152
  12
11.8027982712
  22
2.98023223877e-08
  32
2.21023321152
  13
11.8027982712
  23
2.98023223877e-08
  33
2.21023321152
   0
3DFACE
   8
F2Surf
  10
11.8027982712
  20
-0.166666641831
  30
2.21023321152
  11
11.7309474945
  21
-0.166666641831
  31
2.08641147614
  12
11.8027982712
  22
2.98023223877e-08
  32
2.21023321152
  13
11.8027982712
  23
2.98023223877e-08
  33
2.21023321152
   0
3DFACE
   8
F2Surf
  10
11.2234544754
  20
0.166666701436
  30
1.37682259083
  11
11.0902109146
  21
0.166666701436
  31
1.28783798218
  12
11.2234544754
  22
0.33333337307
  32
1.37682259083
  13
11.2234544754
  23
0.33333337307
  33
1.37682259083
   0
3DFACE
   8
F2Surf
  10
11.7309474945
  20
-0.166666641831
  30
2.08641147614
  11
11.6673088074
  21
-0.166666641831
  31
1.95634651184
  12
11.7309474945
  22
2.98023223877e-08
  32
2.08641147614
  13
11.7309474945
  23
2.98023223877e-08
  33
2.08641147614
   0
3DFACE
   8
F2Surf
  10
11.7309474945
  20
2.98023223877e-08
  30
2.08641147614
  11
11.6673088074
  21
-0.166666641831
  31
1.95634651184
  12
11.6673088074
  22
2.98023223877e-08
  32
1.95634651184
  13
11.6673088074
  23
2.98023223877e-08
  33
1.95634651184
   0
3DFACE
   8
F2Surf
  10
11.6673088074
  20
-0.166666641831
  30
1.95634651184
  11
11.5972595215
  21
-0.166666641831
  31
1.83916854858
  12
11.6673088074
  22
2.98023223877e-08
  32
1.95634651184
  13
11.6673088074
  23
2.98023223877e-08
  33
1.95634651184
   0
3DFACE
   8
F2Surf
  10
12.4835147858
  20
0.166666701436
  30
2.59008526802
  11
12.3161449432
  21
2.98023223877e-08
  31
2.52831935883
  12
12.3161449432
  22
0.166666701436
  32
2.52831935883
  13
12.3161449432
  23
0.166666701436
  33
2.52831935883
   0
3DFACE
   8
F2Surf
  10
11.6673088074
  20
2.98023223877e-08
  30
1.95634651184
  11
11.5972595215
  21
-0.166666641831
  31
1.83916854858
  12
11.5972595215
  22
2.98023223877e-08
  32
1.83916854858
  13
11.5972595215
  23
2.98023223877e-08
  33
1.83916854858
   0
3DFACE
   8
F2Surf
  10
11.5972595215
  20
2.98023223877e-08
  30
1.83916854858
  11
11.4979104996
  21
-0.166666641831
  31
1.69684207439
  12
11.4979104996
  22
2.98023223877e-08
  32
1.69684207439
  13
11.4979104996
  23
2.98023223877e-08
  33
1.69684207439
   0
3DFACE
   8
F2Surf
  10
12.857301712
  20
2.98023223877e-08
  30
2.7279548645
  11
12.6523303986
  21
2.98023223877e-08
  31
2.65067529678
  12
12.857301712
  22
0.166666701436
  32
2.7279548645
  13
12.857301712
  23
0.166666701436
  33
2.7279548645
   0
3DFACE
   8
F2Surf
  10
11.4979104996
  20
-0.166666641831
  30
1.69684207439
  11
11.3465328217
  21
-0.166666641831
  31
1.49140107632
  12
11.4979104996
  22
2.98023223877e-08
  32
1.69684207439
  13
11.4979104996
  23
2.98023223877e-08
  33
1.69684207439
   0
3DFACE
   8
F2Surf
  10
12.4835147858
  20
2.98023223877e-08
  30
2.59008526802
  11
12.3161449432
  21
2.98023223877e-08
  31
2.52831935883
  12
12.4835147858
  22
0.166666701436
  32
2.59008526802
  13
12.4835147858
  23
0.166666701436
  33
2.59008526802
   0
3DFACE
   8
F2Surf
  10
11.4979104996
  20
2.98023223877e-08
  30
1.69684207439
  11
11.3465328217
  21
-0.166666641831
  31
1.49140107632
  12
11.3465328217
  22
2.98023223877e-08
  32
1.49140107632
  13
11.3465328217
  23
2.98023223877e-08
  33
1.49140107632
   0
3DFACE
   8
F2Surf
  10
11.3465328217
  20
2.98023223877e-08
  30
1.49140107632
  11
11.2234544754
  21
-0.166666641831
  31
1.37682259083
  12
11.2234544754
  22
2.98023223877e-08
  32
1.37682259083
  13
11.2234544754
  23
2.98023223877e-08
  33
1.37682259083
   0
3DFACE
   8
F2Surf
  10
11.2234544754
  20
-0.166666641831
  30
1.37682259083
  11
11.0902109146
  21
-0.166666641831
  31
1.28783798218
  12
11.2234544754
  22
2.98023223877e-08
  32
1.37682259083
  13
11.2234544754
  23
2.98023223877e-08
  33
1.37682259083
   0
3DFACE
   8
F2Surf
  10
11.2234544754
  20
2.98023223877e-08
  30
1.37682259083
  11
11.0902109146
  21
-0.166666641831
  31
1.28783798218
  12
11.0902109146
  22
2.98023223877e-08
  32
1.28783798218
  13
11.0902109146
  23
2.98023223877e-08
  33
1.28783798218
   0
3DFACE
   8
F2Surf
  10
12.857301712
  20
0.166666701436
  30
2.7279548645
  11
12.6523303986
  21
2.98023223877e-08
  31
2.65067529678
  12
12.6523303986
  22
0.166666701436
  32
2.65067529678
  13
12.6523303986
  23
0.166666701436
  33
2.65067529678
   0
3DFACE
   8
F2Surf
  10
12.6523303986
  20
2.98023223877e-08
  30
2.65067529678
  11
12.4835147858
  21
2.98023223877e-08
  31
2.59008526802
  12
12.6523303986
  22
0.166666701436
  32
2.65067529678
  13
12.6523303986
  23
0.166666701436
  33
2.65067529678
   0
3DFACE
   8
F2Surf
  10
12.3161449432
  20
2.98023223877e-08
  30
2.52831935883
  11
12.1574516296
  21
2.98023223877e-08
  31
2.46240568161
  12
12.3161449432
  22
0.166666701436
  32
2.52831935883
  13
12.3161449432
  23
0.166666701436
  33
2.52831935883
   0
3DFACE
   8
F2Surf
  10
12.3161449432
  20
0.166666701436
  30
2.52831935883
  11
12.1574516296
  21
2.98023223877e-08
  31
2.46240568161
  12
12.1574516296
  22
0.166666701436
  32
2.46240568161
  13
12.1574516296
  23
0.166666701436
  33
2.46240568161
   0
3DFACE
   8
F2Surf
  10
11.7309474945
  20
0.5
  30
2.08641147614
  11
11.6673088074
  21
0.33333337307
  31
1.95634651184
  12
11.6673088074
  22
0.5
  32
1.95634651184
  13
11.6673088074
  23
0.5
  33
1.95634651184
   0
3DFACE
   8
F2Surf
  10
12.1574516296
  20
2.98023223877e-08
  30
2.46240568161
  11
12.0152759552
  21
2.98023223877e-08
  31
2.39002275467
  12
12.1574516296
  22
0.166666701436
  32
2.46240568161
  13
12.1574516296
  23
0.166666701436
  33
2.46240568161
   0
3DFACE
   8
F2Surf
  10
12.1574516296
  20
0.166666701436
  30
2.46240568161
  11
12.0152759552
  21
2.98023223877e-08
  31
2.39002275467
  12
12.0152759552
  22
0.166666701436
  32
2.39002275467
  13
12.0152759552
  23
0.166666701436
  33
2.39002275467
   0
3DFACE
   8
F2Surf
  10
11.6673088074
  20
0.5
  30
1.95634651184
  11
11.5972595215
  21
0.33333337307
  31
1.83916854858
  12
11.5972595215
  22
0.5
  32
1.83916854858
  13
11.5972595215
  23
0.5
  33
1.83916854858
   0
3DFACE
   8
F2Surf
  10
12.0152759552
  20
0.166666701436
  30
2.39002275467
  11
11.8972740173
  21
2.98023223877e-08
  31
2.30863714218
  12
11.8972740173
  22
0.166666701436
  32
2.30863714218
  13
11.8972740173
  23
0.166666701436
  33
2.30863714218
   0
3DFACE
   8
F2Surf
  10
12.857301712
  20
0.33333337307
  30
2.7279548645
  11
12.6523303986
  21
0.166666701436
  31
2.65067529678
  12
12.6523303986
  22
0.33333337307
  32
2.65067529678
  13
12.6523303986
  23
0.33333337307
  33
2.65067529678
   0
3DFACE
   8
F2Surf
  10
11.8972740173
  20
2.98023223877e-08
  30
2.30863714218
  11
11.8027982712
  21
2.98023223877e-08
  31
2.21023321152
  12
11.8972740173
  22
0.166666701436
  32
2.30863714218
  13
11.8972740173
  23
0.166666701436
  33
2.30863714218
   0
3DFACE
   8
F2Surf
  10
11.8027982712
  20
2.98023223877e-08
  30
2.21023321152
  11
11.7309474945
  21
2.98023223877e-08
  31
2.08641147614
  12
11.8027982712
  22
0.166666701436
  32
2.21023321152
  13
11.8027982712
  23
0.166666701436
  33
2.21023321152
   0
3DFACE
   8
F2Surf
  10
11.8027982712
  20
0.166666701436
  30
2.21023321152
  11
11.7309474945
  21
2.98023223877e-08
  31
2.08641147614
  12
11.7309474945
  22
0.166666701436
  32
2.08641147614
  13
11.7309474945
  23
0.166666701436
  33
2.08641147614
   0
3DFACE
   8
F2Surf
  10
11.2234544754
  20
0.166666701436
  30
1.37682259083
  11
11.0902109146
  21
2.98023223877e-08
  31
1.28783798218
  12
11.0902109146
  22
0.166666701436
  32
1.28783798218
  13
11.0902109146
  23
0.166666701436
  33
1.28783798218
   0
3DFACE
   8
F2Surf
  10
11.7309474945
  20
2.98023223877e-08
  30
2.08641147614
  11
11.6673088074
  21
2.98023223877e-08
  31
1.95634651184
  12
11.7309474945
  22
0.166666701436
  32
2.08641147614
  13
11.7309474945
  23
0.166666701436
  33
2.08641147614
   0
3DFACE
   8
F2Surf
  10
11.6673088074
  20
2.98023223877e-08
  30
1.95634651184
  11
11.5972595215
  21
2.98023223877e-08
  31
1.83916854858
  12
11.6673088074
  22
0.166666701436
  32
1.95634651184
  13
11.6673088074
  23
0.166666701436
  33
1.95634651184
   0
3DFACE
   8
F2Surf
  10
11.6673088074
  20
0.166666701436
  30
1.95634651184
  11
11.5972595215
  21
2.98023223877e-08
  31
1.83916854858
  12
11.5972595215
  22
0.166666701436
  32
1.83916854858
  13
11.5972595215
  23
0.166666701436
  33
1.83916854858
   0
3DFACE
   8
F2Surf
  10
11.5972595215
  20
2.98023223877e-08
  30
1.83916854858
  11
11.4979104996
  21
2.98023223877e-08
  31
1.69684207439
  12
11.5972595215
  22
0.166666701436
  32
1.83916854858
  13
11.5972595215
  23
0.166666701436
  33
1.83916854858
   0
3DFACE
   8
F2Surf
  10
12.6523303986
  20
0.33333337307
  30
2.65067529678
  11
12.4835147858
  21
0.166666701436
  31
2.59008526802
  12
12.4835147858
  22
0.33333337307
  32
2.59008526802
  13
12.4835147858
  23
0.33333337307
  33
2.59008526802
   0
3DFACE
   8
F2Surf
  10
11.4979104996
  20
2.98023223877e-08
  30
1.69684207439
  11
11.3465328217
  21
2.98023223877e-08
  31
1.49140107632
  12
11.4979104996
  22
0.166666701436
  32
1.69684207439
  13
11.4979104996
  23
0.166666701436
  33
1.69684207439
   0
3DFACE
   8
F2Surf
  10
11.4979104996
  20
0.166666701436
  30
1.69684207439
  11
11.3465328217
  21
2.98023223877e-08
  31
1.49140107632
  12
11.3465328217
  22
0.166666701436
  32
1.49140107632
  13
11.3465328217
  23
0.166666701436
  33
1.49140107632
   0
3DFACE
   8
F2Surf
  10
11.3465328217
  20
2.98023223877e-08
  30
1.49140107632
  11
11.2234544754
  21
2.98023223877e-08
  31
1.37682259083
  12
11.3465328217
  22
0.166666701436
  32
1.49140107632
  13
11.3465328217
  23
0.166666701436
  33
1.49140107632
   0
3DFACE
   8
F2Surf
  10
11.3465328217
  20
0.166666701436
  30
1.49140107632
  11
11.2234544754
  21
2.98023223877e-08
  31
1.37682259083
  12
11.2234544754
  22
0.166666701436
  32
1.37682259083
  13
11.2234544754
  23
0.166666701436
  33
1.37682259083
   0
3DFACE
   8
F2Surf
  10
11.2234544754
  20
2.98023223877e-08
  30
1.37682259083
  11
11.0902109146
  21
2.98023223877e-08
  31
1.28783798218
  12
11.2234544754
  22
0.166666701436
  32
1.37682259083
  13
11.2234544754
  23
0.166666701436
  33
1.37682259083
   0
3DFACE
   8
F2Surf
  10
12.6523303986
  20
0.166666701436
  30
2.65067529678
  11
12.4835147858
  21
0.166666701436
  31
2.59008526802
  12
12.6523303986
  22
0.33333337307
  32
2.65067529678
  13
12.6523303986
  23
0.33333337307
  33
2.65067529678
   0
3DFACE
   8
F2Surf
  10
12.4835147858
  20
0.33333337307
  30
2.59008526802
  11
12.3161449432
  21
0.166666701436
  31
2.52831935883
  12
12.3161449432
  22
0.33333337307
  32
2.52831935883
  13
12.3161449432
  23
0.33333337307
  33
2.52831935883
   0
3DFACE
   8
F2Surf
  10
12.1574516296
  20
0.166666701436
  30
2.46240568161
  11
12.0152759552
  21
0.166666701436
  31
2.39002275467
  12
12.1574516296
  22
0.33333337307
  32
2.46240568161
  13
12.1574516296
  23
0.33333337307
  33
2.46240568161
   0
3DFACE
   8
F2Surf
  10
12.3161449432
  20
0.166666701436
  30
2.52831935883
  11
12.1574516296
  21
0.166666701436
  31
2.46240568161
  12
12.3161449432
  22
0.33333337307
  32
2.52831935883
  13
12.3161449432
  23
0.33333337307
  33
2.52831935883
   0
3DFACE
   8
F2Surf
  10
12.3161449432
  20
0.33333337307
  30
2.52831935883
  11
12.1574516296
  21
0.166666701436
  31
2.46240568161
  12
12.1574516296
  22
0.33333337307
  32
2.46240568161
  13
12.1574516296
  23
0.33333337307
  33
2.46240568161
   0
3DFACE
   8
F2Surf
  10
11.4979104996
  20
0.33333337307
  30
1.69684207439
  11
11.3465328217
  21
0.33333337307
  31
1.49140107632
  12
11.4979104996
  22
0.5
  32
1.69684207439
  13
11.4979104996
  23
0.5
  33
1.69684207439
   0
3DFACE
   8
F2Surf
  10
12.4835147858
  20
0.5
  30
2.59008526802
  11
12.3161449432
  21
0.33333337307
  31
2.52831935883
  12
12.3161449432
  22
0.5
  32
2.52831935883
  13
12.3161449432
  23
0.5
  33
2.52831935883
   0
3DFACE
   8
F2Surf
  10
12.1574516296
  20
0.33333337307
  30
2.46240568161
  11
12.0152759552
  21
0.166666701436
  31
2.39002275467
  12
12.0152759552
  22
0.33333337307
  32
2.39002275467
  13
12.0152759552
  23
0.33333337307
  33
2.39002275467
   0
3DFACE
   8
F2Surf
  10
12.0152759552
  20
0.33333337307
  30
2.39002275467
  11
11.8972740173
  21
0.166666701436
  31
2.30863714218
  12
11.8972740173
  22
0.33333337307
  32
2.30863714218
  13
11.8972740173
  23
0.33333337307
  33
2.30863714218
   0
3DFACE
   8
F2Surf
  10
11.8972740173
  20
0.166666701436
  30
2.30863714218
  11
11.8027982712
  21
0.166666701436
  31
2.21023321152
  12
11.8972740173
  22
0.33333337307
  32
2.30863714218
  13
11.8972740173
  23
0.33333337307
  33
2.30863714218
   0
3DFACE
   8
F2Surf
  10
11.8972740173
  20
0.33333337307
  30
2.30863714218
  11
11.8027982712
  21
0.166666701436
  31
2.21023321152
  12
11.8027982712
  22
0.33333337307
  32
2.21023321152
  13
11.8027982712
  23
0.33333337307
  33
2.21023321152
   0
3DFACE
   8
F2Surf
  10
11.8027982712
  20
0.166666701436
  30
2.21023321152
  11
11.7309474945
  21
0.166666701436
  31
2.08641147614
  12
11.8027982712
  22
0.33333337307
  32
2.21023321152
  13
11.8027982712
  23
0.33333337307
  33
2.21023321152
   0
3DFACE
   8
F2Surf
  10
11.7309474945
  20
0.166666701436
  30
2.08641147614
  11
11.6673088074
  21
0.166666701436
  31
1.95634651184
  12
11.7309474945
  22
0.33333337307
  32
2.08641147614
  13
11.7309474945
  23
0.33333337307
  33
2.08641147614
   0
3DFACE
   8
F2Surf
  10
11.7309474945
  20
0.33333337307
  30
2.08641147614
  11
11.6673088074
  21
0.166666701436
  31
1.95634651184
  12
11.6673088074
  22
0.33333337307
  32
1.95634651184
  13
11.6673088074
  23
0.33333337307
  33
1.95634651184
   0
3DFACE
   8
F2Surf
  10
11.6673088074
  20
0.166666701436
  30
1.95634651184
  11
11.5972595215
  21
0.166666701436
  31
1.83916854858
  12
11.6673088074
  22
0.33333337307
  32
1.95634651184
  13
11.6673088074
  23
0.33333337307
  33
1.95634651184
   0
3DFACE
   8
F2Surf
  10
11.6673088074
  20
0.33333337307
  30
1.95634651184
  11
11.5972595215
  21
0.166666701436
  31
1.83916854858
  12
11.5972595215
  22
0.33333337307
  32
1.83916854858
  13
11.5972595215
  23
0.33333337307
  33
1.83916854858
   0
3DFACE
   8
F2Surf
  10
11.5972595215
  20
0.166666701436
  30
1.83916854858
  11
11.4979104996
  21
0.166666701436
  31
1.69684207439
  12
11.5972595215
  22
0.33333337307
  32
1.83916854858
  13
11.5972595215
  23
0.33333337307
  33
1.83916854858
   0
3DFACE
   8
F2Surf
  10
11.4979104996
  20
0.33333337307
  30
1.69684207439
  11
11.3465328217
  21
0.166666701436
  31
1.49140107632
  12
11.3465328217
  22
0.33333337307
  32
1.49140107632
  13
11.3465328217
  23
0.33333337307
  33
1.49140107632
   0
3DFACE
   8
F2Surf
  10
11.3465328217
  20
0.166666701436
  30
1.49140107632
  11
11.2234544754
  21
0.166666701436
  31
1.37682259083
  12
11.3465328217
  22
0.33333337307
  32
1.49140107632
  13
11.3465328217
  23
0.33333337307
  33
1.49140107632
   0
3DFACE
   8
F2Surf
  10
11.2234544754
  20
0.33333337307
  30
1.37682259083
  11
11.0902109146
  21
0.166666701436
  31
1.28783798218
  12
11.0902109146
  22
0.33333337307
  32
1.28783798218
  13
11.0902109146
  23
0.33333337307
  33
1.28783798218
   0
3DFACE
   8
F2Surf
  10
12.857301712
  20
0.33333337307
  30
2.7279548645
  11
12.6523303986
  21
0.33333337307
  31
2.65067529678
  12
12.857301712
  22
0.5
  32
2.7279548645
  13
12.857301712
  23
0.5
  33
2.7279548645
   0
3DFACE
   8
F2Surf
  10
12.857301712
  20
0.5
  30
2.7279548645
  11
12.6523303986
  21
0.33333337307
  31
2.65067529678
  12
12.6523303986
  22
0.5
  32
2.65067529678
  13
12.6523303986
  23
0.5
  33
2.65067529678
   0
3DFACE
   8
F2Surf
  10
12.6523303986
  20
0.5
  30
2.65067529678
  11
12.4835147858
  21
0.33333337307
  31
2.59008526802
  12
12.4835147858
  22
0.5
  32
2.59008526802
  13
12.4835147858
  23
0.5
  33
2.59008526802
   0
3DFACE
   8
F2Surf
  10
12.4835147858
  20
0.33333337307
  30
2.59008526802
  11
12.3161449432
  21
0.33333337307
  31
2.52831935883
  12
12.4835147858
  22
0.5
  32
2.59008526802
  13
12.4835147858
  23
0.5
  33
2.59008526802
   0
3DFACE
   8
F2Surf
  10
12.3161449432
  20
0.33333337307
  30
2.52831935883
  11
12.1574516296
  21
0.33333337307
  31
2.46240568161
  12
12.3161449432
  22
0.5
  32
2.52831935883
  13
12.3161449432
  23
0.5
  33
2.52831935883
   0
3DFACE
   8
F2Surf
  10
11.8972740173
  20
0.33333337307
  30
2.30863714218
  11
11.8027982712
  21
0.33333337307
  31
2.21023321152
  12
11.8972740173
  22
0.5
  32
2.30863714218
  13
11.8972740173
  23
0.5
  33
2.30863714218
   0
3DFACE
   8
F2Surf
  10
11.8027982712
  20
0.33333337307
  30
2.21023321152
  11
11.7309474945
  21
0.33333337307
  31
2.08641147614
  12
11.8027982712
  22
0.5
  32
2.21023321152
  13
11.8027982712
  23
0.5
  33
2.21023321152
   0
3DFACE
   8
F2Surf
  10
11.8027982712
  20
0.5
  30
2.21023321152
  11
11.7309474945
  21
0.33333337307
  31
2.08641147614
  12
11.7309474945
  22
0.5
  32
2.08641147614
  13
11.7309474945
  23
0.5
  33
2.08641147614
   0
3DFACE
   8
F2Surf
  10
11.5972595215
  20
0.5
  30
1.83916854858
  11
11.4979104996
  21
0.33333337307
  31
1.69684207439
  12
11.4979104996
  22
0.5
  32
1.69684207439
  13
11.4979104996
  23
0.5
  33
1.69684207439
   0
3DFACE
   8
F2Surf
  10
11.3465328217
  20
0.33333337307
  30
1.49140107632
  11
11.2234544754
  21
0.33333337307
  31
1.37682259083
  12
11.3465328217
  22
0.5
  32
1.49140107632
  13
11.3465328217
  23
0.5
  33
1.49140107632
   0
3DFACE
   8
F2Surf
  10
11.3465328217
  20
0.5
  30
1.49140107632
  11
11.2234544754
  21
0.33333337307
  31
1.37682259083
  12
11.2234544754
  22
0.5
  32
1.37682259083
  13
11.2234544754
  23
0.5
  33
1.37682259083
   0
3DFACE
   8
F2Surf
  10
11.2234544754
  20
0.33333337307
  30
1.37682259083
  11
11.0902109146
  21
0.33333337307
  31
1.28783798218
  12
11.2234544754
  22
0.5
  32
1.37682259083
  13
11.2234544754
  23
0.5
  33
1.37682259083
   0
3DFACE
   8
F2Surf
  10
11.2234544754
  20
0.5
  30
1.37682259083
  11
11.0902109146
  21
0.33333337307
  31
1.28783798218
  12
11.0902109146
  22
0.5
  32
1.28783798218
  13
11.0902109146
  23
0.5
  33
1.28783798218
   0
ENDSEC
   0
EOF
