   0
SECTION
   2
ENTITIES
   0
3DFACE
   8
F3Surf
  10
10.8851919174
  20
-0.5
  30
2.1041200161
  11
11.0690078735
  21
-0.5
  31
1.9203042984
  12
10.8851919174
  22
-0.333333313465
  32
2.1041200161
  13
10.8851919174
  23
-0.333333313465
  33
2.1041200161
   0
3DFACE
   8
F3Surf
  10
11.0690078735
  20
0.5
  30
1.9203042984
  11
11.1591129303
  21
0.33333337307
  31
1.81938588619
  12
11.1591129303
  22
0.5
  32
1.81938588619
  13
11.1591129303
  23
0.5
  33
1.81938588619
   0
3DFACE
   8
F3Surf
  10
10.8851919174
  20
-0.333333313465
  30
2.1041200161
  11
11.0690078735
  21
-0.5
  31
1.9203042984
  12
11.0690078735
  22
-0.333333313465
  32
1.9203042984
  13
11.0690078735
  23
-0.333333313465
  33
1.9203042984
   0
3DFACE
   8
F3Surf
  10
11.0781707764
  20
0.166666701436
  30
1.23285639286
  11
11.0378351212
  21
0.166666701436
  31
1.09779822826
  12
11.0781707764
  22
0.33333337307
  32
1.23285639286
  13
11.0781707764
  23
0.33333337307
  33
1.23285639286
   0
3DFACE
   8
F3Surf
  10
11.0690078735
  20
-0.5
  30
1.9203042984
  11
11.1591129303
  21
-0.5
  31
1.81938588619
  12
11.0690078735
  22
-0.333333313465
  32
1.9203042984
  13
11.0690078735
  23
-0.333333313465
  33
1.9203042984
   0
3DFACE
   8
F3Surf
  10
11.113067627
  20
0.5
  30
1.37973618507
  11
11.0781707764
  21
0.33333337307
  31
1.23285639286
  12
11.0781707764
  22
0.5
  32
1.23285639286
  13
11.0781707764
  23
0.5
  33
1.23285639286
   0
3DFACE
   8
F3Surf
  10
11.0690078735
  20
-0.333333313465
  30
1.9203042984
  11
11.1591129303
  21
-0.5
  31
1.81938588619
  12
11.1591129303
  22
-0.333333313465
  32
1.81938588619
  13
11.1591129303
  23
-0.333333313465
  33
1.81938588619
   0
3DFACE
   8
F3Surf
  10
11.1591129303
  20
-0.5
  30
1.81938588619
  11
11.1715126038
  21
-0.5
  31
1.68441772461
  12
11.1591129303
  22
-0.333333313465
  32
1.81938588619
  13
11.1591129303
  23
-0.333333313465
  33
1.81938588619
   0
3DFACE
   8
F3Surf
  10
11.1591129303
  20
-0.333333313465
  30
1.81938588619
  11
11.1715126038
  21
-0.5
  31
1.68441772461
  12
11.1715126038
  22
-0.333333313465
  32
1.68441772461
  13
11.1715126038
  23
-0.333333313465
  33
1.68441772461
   0
3DFACE
   8
F3Surf
  10
11.1715126038
  20
-0.5
  30
1.68441772461
  11
11.1437339783
  21
-0.5
  31
1.53226208687
  12
11.1715126038
  22
-0.333333313465
  32
1.68441772461
  13
11.1715126038
  23
-0.333333313465
  33
1.68441772461
   0
3DFACE
   8
F3Surf
  10
11.1715126038
  20
-0.333333313465
  30
1.68441772461
  11
11.1437339783
  21
-0.5
  31
1.53226208687
  12
11.1437339783
  22
-0.333333313465
  32
1.53226208687
  13
11.1437339783
  23
-0.333333313465
  33
1.53226208687
   0
3DFACE
   8
F3Surf
  10
11.1437339783
  20
-0.5
  30
1.53226208687
  11
11.113067627
  21
-0.5
  31
1.37973618507
  12
11.1437339783
  22
-0.333333313465
  32
1.53226208687
  13
11.1437339783
  23
-0.333333313465
  33
1.53226208687
   0
3DFACE
   8
F3Surf
  10
11.0781707764
  20
0.33333337307
  30
1.23285639286
  11
11.0378351212
  21
0.33333337307
  31
1.09779822826
  12
11.0781707764
  22
0.5
  32
1.23285639286
  13
11.0781707764
  23
0.5
  33
1.23285639286
   0
3DFACE
   8
F3Surf
  10
11.1437339783
  20
-0.333333313465
  30
1.53226208687
  11
11.113067627
  21
-0.5
  31
1.37973618507
  12
11.113067627
  22
-0.333333313465
  32
1.37973618507
  13
11.113067627
  23
-0.333333313465
  33
1.37973618507
   0
3DFACE
   8
F3Surf
  10
11.113067627
  20
-0.5
  30
1.37973618507
  11
11.0781707764
  21
-0.5
  31
1.23285639286
  12
11.113067627
  22
-0.333333313465
  32
1.37973618507
  13
11.113067627
  23
-0.333333313465
  33
1.37973618507
   0
3DFACE
   8
F3Surf
  10
11.113067627
  20
-0.333333313465
  30
1.37973618507
  11
11.0781707764
  21
-0.5
  31
1.23285639286
  12
11.0781707764
  22
-0.333333313465
  32
1.23285639286
  13
11.0781707764
  23
-0.333333313465
  33
1.23285639286
   0
3DFACE
   8
F3Surf
  10
11.0781707764
  20
-0.5
  30
1.23285639286
  11
11.0378351212
  21
-0.5
  31
1.09779822826
  12
11.0781707764
  22
-0.333333313465
  32
1.23285639286
  13
11.0781707764
  23
-0.333333313465
  33
1.23285639286
   0
3DFACE
   8
F3Surf
  10
11.0781707764
  20
-0.333333313465
  30
1.23285639286
  11
11.0378351212
  21
-0.5
  31
1.09779822826
  12
11.0378351212
  22
-0.333333313465
  32
1.09779822826
  13
11.0378351212
  23
-0.333333313465
  33
1.09779822826
   0
3DFACE
   8
F3Surf
  10
11.0378351212
  20
-0.5
  30
1.09779822826
  11
11.0235347748
  21
-0.5
  31
0.97278881073
  12
11.0378351212
  22
-0.333333313465
  32
1.09779822826
  13
11.0378351212
  23
-0.333333313465
  33
1.09779822826
   0
3DFACE
   8
F3Surf
  10
11.0378351212
  20
-0.333333313465
  30
1.09779822826
  11
11.0235347748
  21
-0.5
  31
0.97278881073
  12
11.0235347748
  22
-0.333333313465
  32
0.97278881073
  13
11.0235347748
  23
-0.333333313465
  33
0.97278881073
   0
3DFACE
   8
F3Surf
  10
11.0235347748
  20
-0.5
  30
0.97278881073
  11
11.0667419434
  21
-0.5
  31
0.85596716404
  12
11.0235347748
  22
-0.333333313465
  32
0.97278881073
  13
11.0235347748
  23
-0.333333313465
  33
0.97278881073
   0
3DFACE
   8
F3Surf
  10
11.0235347748
  20
-0.333333313465
  30
0.97278881073
  11
11.0667419434
  21
-0.5
  31
0.85596716404
  12
11.0667419434
  22
-0.333333313465
  32
0.85596716404
  13
11.0667419434
  23
-0.333333313465
  33
0.85596716404
   0
3DFACE
   8
F3Surf
  10
11.0667419434
  20
-0.5
  30
0.85596716404
  11
11.1502904892
  21
-0.5
  31
0.719277620316
  12
11.0667419434
  22
-0.333333313465
  32
0.85596716404
  13
11.0667419434
  23
-0.333333313465
  33
0.85596716404
   0
3DFACE
   8
F3Surf
  10
11.0667419434
  20
-0.333333313465
  30
0.85596716404
  11
11.1502904892
  21
-0.5
  31
0.719277620316
  12
11.1502904892
  22
-0.333333313465
  32
0.719277620316
  13
11.1502904892
  23
-0.333333313465
  33
0.719277620316
   0
3DFACE
   8
F3Surf
  10
10.8851919174
  20
-0.333333313465
  30
2.1041200161
  11
11.0690078735
  21
-0.333333313465
  31
1.9203042984
  12
10.8851919174
  22
-0.166666641831
  32
2.1041200161
  13
10.8851919174
  23
-0.166666641831
  33
2.1041200161
   0
3DFACE
   8
F3Surf
  10
10.8851919174
  20
-0.166666641831
  30
2.1041200161
  11
11.0690078735
  21
-0.333333313465
  31
1.9203042984
  12
11.0690078735
  22
-0.166666641831
  32
1.9203042984
  13
11.0690078735
  23
-0.166666641831
  33
1.9203042984
   0
3DFACE
   8
F3Surf
  10
11.0690078735
  20
-0.333333313465
  30
1.9203042984
  11
11.1591129303
  21
-0.333333313465
  31
1.81938588619
  12
11.0690078735
  22
-0.166666641831
  32
1.9203042984
  13
11.0690078735
  23
-0.166666641831
  33
1.9203042984
   0
3DFACE
   8
F3Surf
  10
11.0690078735
  20
-0.166666641831
  30
1.9203042984
  11
11.1591129303
  21
-0.333333313465
  31
1.81938588619
  12
11.1591129303
  22
-0.166666641831
  32
1.81938588619
  13
11.1591129303
  23
-0.166666641831
  33
1.81938588619
   0
3DFACE
   8
F3Surf
  10
11.1591129303
  20
-0.333333313465
  30
1.81938588619
  11
11.1715126038
  21
-0.333333313465
  31
1.68441772461
  12
11.1591129303
  22
-0.166666641831
  32
1.81938588619
  13
11.1591129303
  23
-0.166666641831
  33
1.81938588619
   0
3DFACE
   8
F3Surf
  10
11.1591129303
  20
0.33333337307
  30
1.81938588619
  11
11.1715126038
  21
0.33333337307
  31
1.68441772461
  12
11.1591129303
  22
0.5
  32
1.81938588619
  13
11.1591129303
  23
0.5
  33
1.81938588619
   0
3DFACE
   8
F3Surf
  10
11.1591129303
  20
-0.166666641831
  30
1.81938588619
  11
11.1715126038
  21
-0.333333313465
  31
1.68441772461
  12
11.1715126038
  22
-0.166666641831
  32
1.68441772461
  13
11.1715126038
  23
-0.166666641831
  33
1.68441772461
   0
3DFACE
   8
F3Surf
  10
11.1715126038
  20
-0.333333313465
  30
1.68441772461
  11
11.1437339783
  21
-0.333333313465
  31
1.53226208687
  12
11.1715126038
  22
-0.166666641831
  32
1.68441772461
  13
11.1715126038
  23
-0.166666641831
  33
1.68441772461
   0
3DFACE
   8
F3Surf
  10
11.1715126038
  20
-0.166666641831
  30
1.68441772461
  11
11.1437339783
  21
-0.333333313465
  31
1.53226208687
  12
11.1437339783
  22
-0.166666641831
  32
1.53226208687
  13
11.1437339783
  23
-0.166666641831
  33
1.53226208687
   0
3DFACE
   8
F3Surf
  10
11.1437339783
  20
-0.333333313465
  30
1.53226208687
  11
11.113067627
  21
-0.333333313465
  31
1.37973618507
  12
11.1437339783
  22
-0.166666641831
  32
1.53226208687
  13
11.1437339783
  23
-0.166666641831
  33
1.53226208687
   0
3DFACE
   8
F3Surf
  10
11.1437339783
  20
-0.166666641831
  30
1.53226208687
  11
11.113067627
  21
-0.333333313465
  31
1.37973618507
  12
11.113067627
  22
-0.166666641831
  32
1.37973618507
  13
11.113067627
  23
-0.166666641831
  33
1.37973618507
   0
3DFACE
   8
F3Surf
  10
11.113067627
  20
-0.333333313465
  30
1.37973618507
  11
11.0781707764
  21
-0.333333313465
  31
1.23285639286
  12
11.113067627
  22
-0.166666641831
  32
1.37973618507
  13
11.113067627
  23
-0.166666641831
  33
1.37973618507
   0
3DFACE
   8
F3Surf
  10
11.113067627
  20
-0.166666641831
  30
1.37973618507
  11
11.0781707764
  21
-0.333333313465
  31
1.23285639286
  12
11.0781707764
  22
-0.166666641831
  32
1.23285639286
  13
11.0781707764
  23
-0.166666641831
  33
1.23285639286
   0
3DFACE
   8
F3Surf
  10
11.0781707764
  20
-0.333333313465
  30
1.23285639286
  11
11.0378351212
  21
-0.333333313465
  31
1.09779822826
  12
11.0781707764
  22
-0.166666641831
  32
1.23285639286
  13
11.0781707764
  23
-0.166666641831
  33
1.23285639286
   0
3DFACE
   8
F3Surf
  10
11.0781707764
  20
-0.166666641831
  30
1.23285639286
  11
11.0378351212
  21
-0.333333313465
  31
1.09779822826
  12
11.0378351212
  22
-0.166666641831
  32
1.09779822826
  13
11.0378351212
  23
-0.166666641831
  33
1.09779822826
   0
3DFACE
   8
F3Surf
  10
11.0378351212
  20
-0.333333313465
  30
1.09779822826
  11
11.0235347748
  21
-0.333333313465
  31
0.97278881073
  12
11.0378351212
  22
-0.166666641831
  32
1.09779822826
  13
11.0378351212
  23
-0.166666641831
  33
1.09779822826
   0
3DFACE
   8
F3Surf
  10
11.0378351212
  20
-0.166666641831
  30
1.09779822826
  11
11.0235347748
  21
-0.333333313465
  31
0.97278881073
  12
11.0235347748
  22
-0.166666641831
  32
0.97278881073
  13
11.0235347748
  23
-0.166666641831
  33
0.97278881073
   0
3DFACE
   8
F3Surf
  10
11.0235347748
  20
-0.333333313465
  30
0.97278881073
  11
11.0667419434
  21
-0.333333313465
  31
0.85596716404
  12
11.0235347748
  22
-0.166666641831
  32
0.97278881073
  13
11.0235347748
  23
-0.166666641831
  33
0.97278881073
   0
3DFACE
   8
F3Surf
  10
11.0235347748
  20
-0.166666641831
  30
0.97278881073
  11
11.0667419434
  21
-0.333333313465
  31
0.85596716404
  12
11.0667419434
  22
-0.166666641831
  32
0.85596716404
  13
11.0667419434
  23
-0.166666641831
  33
0.85596716404
   0
3DFACE
   8
F3Surf
  10
11.0667419434
  20
-0.333333313465
  30
0.85596716404
  11
11.1502904892
  21
-0.333333313465
  31
0.719277620316
  12
11.0667419434
  22
-0.166666641831
  32
0.85596716404
  13
11.0667419434
  23
-0.166666641831
  33
0.85596716404
   0
3DFACE
   8
F3Surf
  10
11.0667419434
  20
-0.166666641831
  30
0.85596716404
  11
11.1502904892
  21
-0.333333313465
  31
0.719277620316
  12
11.1502904892
  22
-0.166666641831
  32
0.719277620316
  13
11.1502904892
  23
-0.166666641831
  33
0.719277620316
   0
3DFACE
   8
F3Surf
  10
10.8851919174
  20
-0.166666641831
  30
2.1041200161
  11
11.0690078735
  21
-0.166666641831
  31
1.9203042984
  12
10.8851919174
  22
2.98023223877e-08
  32
2.1041200161
  13
10.8851919174
  23
2.98023223877e-08
  33
2.1041200161
   0
3DFACE
   8
F3Surf
  10
10.8851919174
  20
2.98023223877e-08
  30
2.1041200161
  11
11.0690078735
  21
-0.166666641831
  31
1.9203042984
  12
11.0690078735
  22
2.98023223877e-08
  32
1.9203042984
  13
11.0690078735
  23
2.98023223877e-08
  33
1.9203042984
   0
3DFACE
   8
F3Surf
  10
11.0690078735
  20
-0.166666641831
  30
1.9203042984
  11
11.1591129303
  21
-0.166666641831
  31
1.81938588619
  12
11.0690078735
  22
2.98023223877e-08
  32
1.9203042984
  13
11.0690078735
  23
2.98023223877e-08
  33
1.9203042984
   0
3DFACE
   8
F3Surf
  10
11.0690078735
  20
2.98023223877e-08
  30
1.9203042984
  11
11.1591129303
  21
-0.166666641831
  31
1.81938588619
  12
11.1591129303
  22
2.98023223877e-08
  32
1.81938588619
  13
11.1591129303
  23
2.98023223877e-08
  33
1.81938588619
   0
3DFACE
   8
F3Surf
  10
11.1591129303
  20
-0.166666641831
  30
1.81938588619
  11
11.1715126038
  21
-0.166666641831
  31
1.68441772461
  12
11.1591129303
  22
2.98023223877e-08
  32
1.81938588619
  13
11.1591129303
  23
2.98023223877e-08
  33
1.81938588619
   0
3DFACE
   8
F3Surf
  10
11.1591129303
  20
2.98023223877e-08
  30
1.81938588619
  11
11.1715126038
  21
-0.166666641831
  31
1.68441772461
  12
11.1715126038
  22
2.98023223877e-08
  32
1.68441772461
  13
11.1715126038
  23
2.98023223877e-08
  33
1.68441772461
   0
3DFACE
   8
F3Surf
  10
11.1715126038
  20
-0.166666641831
  30
1.68441772461
  11
11.1437339783
  21
-0.166666641831
  31
1.53226208687
  12
11.1715126038
  22
2.98023223877e-08
  32
1.68441772461
  13
11.1715126038
  23
2.98023223877e-08
  33
1.68441772461
   0
3DFACE
   8
F3Surf
  10
11.1715126038
  20
2.98023223877e-08
  30
1.68441772461
  11
11.1437339783
  21
-0.166666641831
  31
1.53226208687
  12
11.1437339783
  22
2.98023223877e-08
  32
1.53226208687
  13
11.1437339783
  23
2.98023223877e-08
  33
1.53226208687
   0
3DFACE
   8
F3Surf
  10
11.1437339783
  20
-0.166666641831
  30
1.53226208687
  11
11.113067627
  21
-0.166666641831
  31
1.37973618507
  12
11.1437339783
  22
2.98023223877e-08
  32
1.53226208687
  13
11.1437339783
  23
2.98023223877e-08
  33
1.53226208687
   0
3DFACE
   8
F3Surf
  10
11.1437339783
  20
2.98023223877e-08
  30
1.53226208687
  11
11.113067627
  21
-0.166666641831
  31
1.37973618507
  12
11.113067627
  22
2.98023223877e-08
  32
1.37973618507
  13
11.113067627
  23
2.98023223877e-08
  33
1.37973618507
   0
3DFACE
   8
F3Surf
  10
11.113067627
  20
-0.166666641831
  30
1.37973618507
  11
11.0781707764
  21
-0.166666641831
  31
1.23285639286
  12
11.113067627
  22
2.98023223877e-08
  32
1.37973618507
  13
11.113067627
  23
2.98023223877e-08
  33
1.37973618507
   0
3DFACE
   8
F3Surf
  10
11.113067627
  20
2.98023223877e-08
  30
1.37973618507
  11
11.0781707764
  21
-0.166666641831
  31
1.23285639286
  12
11.0781707764
  22
2.98023223877e-08
  32
1.23285639286
  13
11.0781707764
  23
2.98023223877e-08
  33
1.23285639286
   0
3DFACE
   8
F3Surf
  10
11.0781707764
  20
-0.166666641831
  30
1.23285639286
  11
11.0378351212
  21
-0.166666641831
  31
1.09779822826
  12
11.0781707764
  22
2.98023223877e-08
  32
1.23285639286
  13
11.0781707764
  23
2.98023223877e-08
  33
1.23285639286
   0
3DFACE
   8
F3Surf
  10
11.0781707764
  20
2.98023223877e-08
  30
1.23285639286
  11
11.0378351212
  21
-0.166666641831
  31
1.09779822826
  12
11.0378351212
  22
2.98023223877e-08
  32
1.09779822826
  13
11.0378351212
  23
2.98023223877e-08
  33
1.09779822826
   0
3DFACE
   8
F3Surf
  10
11.0378351212
  20
-0.166666641831
  30
1.09779822826
  11
11.0235347748
  21
-0.166666641831
  31
0.97278881073
  12
11.0378351212
  22
2.98023223877e-08
  32
1.09779822826
  13
11.0378351212
  23
2.98023223877e-08
  33
1.09779822826
   0
3DFACE
   8
F3Surf
  10
11.0378351212
  20
2.98023223877e-08
  30
1.09779822826
  11
11.0235347748
  21
-0.166666641831
  31
0.97278881073
  12
11.0235347748
  22
2.98023223877e-08
  32
0.97278881073
  13
11.0235347748
  23
2.98023223877e-08
  33
0.97278881073
   0
3DFACE
   8
F3Surf
  10
11.0235347748
  20
-0.166666641831
  30
0.97278881073
  11
11.0667419434
  21
-0.166666641831
  31
0.85596716404
  12
11.0235347748
  22
2.98023223877e-08
  32
0.97278881073
  13
11.0235347748
  23
2.98023223877e-08
  33
0.97278881073
   0
3DFACE
   8
F3Surf
  10
11.0235347748
  20
2.98023223877e-08
  30
0.97278881073
  11
11.0667419434
  21
-0.166666641831
  31
0.85596716404
  12
11.0667419434
  22
2.98023223877e-08
  32
0.85596716404
  13
11.0667419434
  23
2.98023223877e-08
  33
0.85596716404
   0
3DFACE
   8
F3Surf
  10
11.0667419434
  20
-0.166666641831
  30
0.85596716404
  11
11.1502904892
  21
-0.166666641831
  31
0.719277620316
  12
11.0667419434
  22
2.98023223877e-08
  32
0.85596716404
  13
11.0667419434
  23
2.98023223877e-08
  33
0.85596716404
   0
3DFACE
   8
F3Surf
  10
11.0667419434
  20
2.98023223877e-08
  30
0.85596716404
  11
11.1502904892
  21
-0.166666641831
  31
0.719277620316
  12
11.1502904892
  22
2.98023223877e-08
  32
0.719277620316
  13
11.1502904892
  23
2.98023223877e-08
  33
0.719277620316
   0
3DFACE
   8
F3Surf
  10
10.8851919174
  20
2.98023223877e-08
  30
2.1041200161
  11
11.0690078735
  21
2.98023223877e-08
  31
1.9203042984
  12
10.8851919174
  22
0.166666701436
  32
2.1041200161
  13
10.8851919174
  23
0.166666701436
  33
2.1041200161
   0
3DFACE
   8
F3Surf
  10
10.8851919174
  20
0.166666701436
  30
2.1041200161
  11
11.0690078735
  21
2.98023223877e-08
  31
1.9203042984
  12
11.0690078735
  22
0.166666701436
  32
1.9203042984
  13
11.0690078735
  23
0.166666701436
  33
1.9203042984
   0
3DFACE
   8
F3Surf
  10
11.0690078735
  20
2.98023223877e-08
  30
1.9203042984
  11
11.1591129303
  21
2.98023223877e-08
  31
1.81938588619
  12
11.0690078735
  22
0.166666701436
  32
1.9203042984
  13
11.0690078735
  23
0.166666701436
  33
1.9203042984
   0
3DFACE
   8
F3Surf
  10
11.0690078735
  20
0.166666701436
  30
1.9203042984
  11
11.1591129303
  21
2.98023223877e-08
  31
1.81938588619
  12
11.1591129303
  22
0.166666701436
  32
1.81938588619
  13
11.1591129303
  23
0.166666701436
  33
1.81938588619
   0
3DFACE
   8
F3Surf
  10
11.1591129303
  20
2.98023223877e-08
  30
1.81938588619
  11
11.1715126038
  21
2.98023223877e-08
  31
1.68441772461
  12
11.1591129303
  22
0.166666701436
  32
1.81938588619
  13
11.1591129303
  23
0.166666701436
  33
1.81938588619
   0
3DFACE
   8
F3Surf
  10
11.1591129303
  20
0.166666701436
  30
1.81938588619
  11
11.1715126038
  21
2.98023223877e-08
  31
1.68441772461
  12
11.1715126038
  22
0.166666701436
  32
1.68441772461
  13
11.1715126038
  23
0.166666701436
  33
1.68441772461
   0
3DFACE
   8
F3Surf
  10
11.1715126038
  20
2.98023223877e-08
  30
1.68441772461
  11
11.1437339783
  21
2.98023223877e-08
  31
1.53226208687
  12
11.1715126038
  22
0.166666701436
  32
1.68441772461
  13
11.1715126038
  23
0.166666701436
  33
1.68441772461
   0
3DFACE
   8
F3Surf
  10
11.1715126038
  20
0.166666701436
  30
1.68441772461
  11
11.1437339783
  21
2.98023223877e-08
  31
1.53226208687
  12
11.1437339783
  22
0.166666701436
  32
1.53226208687
  13
11.1437339783
  23
0.166666701436
  33
1.53226208687
   0
3DFACE
   8
F3Surf
  10
11.1437339783
  20
2.98023223877e-08
  30
1.53226208687
  11
11.113067627
  21
2.98023223877e-08
  31
1.37973618507
  12
11.1437339783
  22
0.166666701436
  32
1.53226208687
  13
11.1437339783
  23
0.166666701436
  33
1.53226208687
   0
3DFACE
   8
F3Surf
  10
11.1437339783
  20
0.166666701436
  30
1.53226208687
  11
11.113067627
  21
2.98023223877e-08
  31
1.37973618507
  12
11.113067627
  22
0.166666701436
  32
1.37973618507
  13
11.113067627
  23
0.166666701436
  33
1.37973618507
   0
3DFACE
   8
F3Surf
  10
11.113067627
  20
2.98023223877e-08
  30
1.37973618507
  11
11.0781707764
  21
2.98023223877e-08
  31
1.23285639286
  12
11.113067627
  22
0.166666701436
  32
1.37973618507
  13
11.113067627
  23
0.166666701436
  33
1.37973618507
   0
3DFACE
   8
F3Surf
  10
11.113067627
  20
0.166666701436
  30
1.37973618507
  11
11.0781707764
  21
2.98023223877e-08
  31
1.23285639286
  12
11.0781707764
  22
0.166666701436
  32
1.23285639286
  13
11.0781707764
  23
0.166666701436
  33
1.23285639286
   0
3DFACE
   8
F3Surf
  10
11.0781707764
  20
2.98023223877e-08
  30
1.23285639286
  11
11.0378351212
  21
2.98023223877e-08
  31
1.09779822826
  12
11.0781707764
  22
0.166666701436
  32
1.23285639286
  13
11.0781707764
  23
0.166666701436
  33
1.23285639286
   0
3DFACE
   8
F3Surf
  10
11.0781707764
  20
0.166666701436
  30
1.23285639286
  11
11.0378351212
  21
2.98023223877e-08
  31
1.09779822826
  12
11.0378351212
  22
0.166666701436
  32
1.09779822826
  13
11.0378351212
  23
0.166666701436
  33
1.09779822826
   0
3DFACE
   8
F3Surf
  10
11.0378351212
  20
2.98023223877e-08
  30
1.09779822826
  11
11.0235347748
  21
2.98023223877e-08
  31
0.97278881073
  12
11.0378351212
  22
0.166666701436
  32
1.09779822826
  13
11.0378351212
  23
0.166666701436
  33
1.09779822826
   0
3DFACE
   8
F3Surf
  10
11.0378351212
  20
0.166666701436
  30
1.09779822826
  11
11.0235347748
  21
2.98023223877e-08
  31
0.97278881073
  12
11.0235347748
  22
0.166666701436
  32
0.97278881073
  13
11.0235347748
  23
0.166666701436
  33
0.97278881073
   0
3DFACE
   8
F3Surf
  10
11.0235347748
  20
2.98023223877e-08
  30
0.97278881073
  11
11.0667419434
  21
2.98023223877e-08
  31
0.85596716404
  12
11.0235347748
  22
0.166666701436
  32
0.97278881073
  13
11.0235347748
  23
0.166666701436
  33
0.97278881073
   0
3DFACE
   8
F3Surf
  10
11.0235347748
  20
0.166666701436
  30
0.97278881073
  11
11.0667419434
  21
2.98023223877e-08
  31
0.85596716404
  12
11.0667419434
  22
0.166666701436
  32
0.85596716404
  13
11.0667419434
  23
0.166666701436
  33
0.85596716404
   0
3DFACE
   8
F3Surf
  10
11.0667419434
  20
2.98023223877e-08
  30
0.85596716404
  11
11.1502904892
  21
2.98023223877e-08
  31
0.719277620316
  12
11.0667419434
  22
0.166666701436
  32
0.85596716404
  13
11.0667419434
  23
0.166666701436
  33
0.85596716404
   0
3DFACE
   8
F3Surf
  10
11.0667419434
  20
0.166666701436
  30
0.85596716404
  11
11.1502904892
  21
2.98023223877e-08
  31
0.719277620316
  12
11.1502904892
  22
0.166666701436
  32
0.719277620316
  13
11.1502904892
  23
0.166666701436
  33
0.719277620316
   0
3DFACE
   8
F3Surf
  10
10.8851919174
  20
0.166666701436
  30
2.1041200161
  11
11.0690078735
  21
0.166666701436
  31
1.9203042984
  12
10.8851919174
  22
0.33333337307
  32
2.1041200161
  13
10.8851919174
  23
0.33333337307
  33
2.1041200161
   0
3DFACE
   8
F3Surf
  10
10.8851919174
  20
0.33333337307
  30
2.1041200161
  11
11.0690078735
  21
0.166666701436
  31
1.9203042984
  12
11.0690078735
  22
0.33333337307
  32
1.9203042984
  13
11.0690078735
  23
0.33333337307
  33
1.9203042984
   0
3DFACE
   8
F3Surf
  10
11.0690078735
  20
0.166666701436
  30
1.9203042984
  11
11.1591129303
  21
0.166666701436
  31
1.81938588619
  12
11.0690078735
  22
0.33333337307
  32
1.9203042984
  13
11.0690078735
  23
0.33333337307
  33
1.9203042984
   0
3DFACE
   8
F3Surf
  10
11.0690078735
  20
0.33333337307
  30
1.9203042984
  11
11.1591129303
  21
0.166666701436
  31
1.81938588619
  12
11.1591129303
  22
0.33333337307
  32
1.81938588619
  13
11.1591129303
  23
0.33333337307
  33
1.81938588619
   0
3DFACE
   8
F3Surf
  10
11.1591129303
  20
0.166666701436
  30
1.81938588619
  11
11.1715126038
  21
0.166666701436
  31
1.68441772461
  12
11.1591129303
  22
0.33333337307
  32
1.81938588619
  13
11.1591129303
  23
0.33333337307
  33
1.81938588619
   0
3DFACE
   8
F3Surf
  10
11.1591129303
  20
0.33333337307
  30
1.81938588619
  11
11.1715126038
  21
0.166666701436
  31
1.68441772461
  12
11.1715126038
  22
0.33333337307
  32
1.68441772461
  13
11.1715126038
  23
0.33333337307
  33
1.68441772461
   0
3DFACE
   8
F3Surf
  10
11.1715126038
  20
0.166666701436
  30
1.68441772461
  11
11.1437339783
  21
0.166666701436
  31
1.53226208687
  12
11.1715126038
  22
0.33333337307
  32
1.68441772461
  13
11.1715126038
  23
0.33333337307
  33
1.68441772461
   0
3DFACE
   8
F3Surf
  10
11.1715126038
  20
0.33333337307
  30
1.68441772461
  11
11.1437339783
  21
0.166666701436
  31
1.53226208687
  12
11.1437339783
  22
0.33333337307
  32
1.53226208687
  13
11.1437339783
  23
0.33333337307
  33
1.53226208687
   0
3DFACE
   8
F3Surf
  10
11.1437339783
  20
0.166666701436
  30
1.53226208687
  11
11.113067627
  21
0.166666701436
  31
1.37973618507
  12
11.1437339783
  22
0.33333337307
  32
1.53226208687
  13
11.1437339783
  23
0.33333337307
  33
1.53226208687
   0
3DFACE
   8
F3Surf
  10
11.1437339783
  20
0.33333337307
  30
1.53226208687
  11
11.113067627
  21
0.166666701436
  31
1.37973618507
  12
11.113067627
  22
0.33333337307
  32
1.37973618507
  13
11.113067627
  23
0.33333337307
  33
1.37973618507
   0
3DFACE
   8
F3Surf
  10
11.113067627
  20
0.166666701436
  30
1.37973618507
  11
11.0781707764
  21
0.166666701436
  31
1.23285639286
  12
11.113067627
  22
0.33333337307
  32
1.37973618507
  13
11.113067627
  23
0.33333337307
  33
1.37973618507
   0
3DFACE
   8
F3Surf
  10
11.113067627
  20
0.33333337307
  30
1.37973618507
  11
11.0781707764
  21
0.166666701436
  31
1.23285639286
  12
11.0781707764
  22
0.33333337307
  32
1.23285639286
  13
11.0781707764
  23
0.33333337307
  33
1.23285639286
   0
3DFACE
   8
F3Surf
  10
11.0781707764
  20
0.33333337307
  30
1.23285639286
  11
11.0378351212
  21
0.166666701436
  31
1.09779822826
  12
11.0378351212
  22
0.33333337307
  32
1.09779822826
  13
11.0378351212
  23
0.33333337307
  33
1.09779822826
   0
3DFACE
   8
F3Surf
  10
11.0378351212
  20
0.166666701436
  30
1.09779822826
  11
11.0235347748
  21
0.166666701436
  31
0.97278881073
  12
11.0378351212
  22
0.33333337307
  32
1.09779822826
  13
11.0378351212
  23
0.33333337307
  33
1.09779822826
   0
3DFACE
   8
F3Surf
  10
11.0378351212
  20
0.33333337307
  30
1.09779822826
  11
11.0235347748
  21
0.166666701436
  31
0.97278881073
  12
11.0235347748
  22
0.33333337307
  32
0.97278881073
  13
11.0235347748
  23
0.33333337307
  33
0.97278881073
   0
3DFACE
   8
F3Surf
  10
11.0235347748
  20
0.166666701436
  30
0.97278881073
  11
11.0667419434
  21
0.166666701436
  31
0.85596716404
  12
11.0235347748
  22
0.33333337307
  32
0.97278881073
  13
11.0235347748
  23
0.33333337307
  33
0.97278881073
   0
3DFACE
   8
F3Surf
  10
11.0235347748
  20
0.33333337307
  30
0.97278881073
  11
11.0667419434
  21
0.166666701436
  31
0.85596716404
  12
11.0667419434
  22
0.33333337307
  32
0.85596716404
  13
11.0667419434
  23
0.33333337307
  33
0.85596716404
   0
3DFACE
   8
F3Surf
  10
11.0667419434
  20
0.166666701436
  30
0.85596716404
  11
11.1502904892
  21
0.166666701436
  31
0.719277620316
  12
11.0667419434
  22
0.33333337307
  32
0.85596716404
  13
11.0667419434
  23
0.33333337307
  33
0.85596716404
   0
3DFACE
   8
F3Surf
  10
11.0667419434
  20
0.33333337307
  30
0.85596716404
  11
11.1502904892
  21
0.166666701436
  31
0.719277620316
  12
11.1502904892
  22
0.33333337307
  32
0.719277620316
  13
11.1502904892
  23
0.33333337307
  33
0.719277620316
   0
3DFACE
   8
F3Surf
  10
10.8851919174
  20
0.33333337307
  30
2.1041200161
  11
11.0690078735
  21
0.33333337307
  31
1.9203042984
  12
10.8851919174
  22
0.5
  32
2.1041200161
  13
10.8851919174
  23
0.5
  33
2.1041200161
   0
3DFACE
   8
F3Surf
  10
10.8851919174
  20
0.5
  30
2.1041200161
  11
11.0690078735
  21
0.33333337307
  31
1.9203042984
  12
11.0690078735
  22
0.5
  32
1.9203042984
  13
11.0690078735
  23
0.5
  33
1.9203042984
   0
3DFACE
   8
F3Surf
  10
11.0690078735
  20
0.33333337307
  30
1.9203042984
  11
11.1591129303
  21
0.33333337307
  31
1.81938588619
  12
11.0690078735
  22
0.5
  32
1.9203042984
  13
11.0690078735
  23
0.5
  33
1.9203042984
   0
3DFACE
   8
F3Surf
  10
11.1591129303
  20
0.5
  30
1.81938588619
  11
11.1715126038
  21
0.33333337307
  31
1.68441772461
  12
11.1715126038
  22
0.5
  32
1.68441772461
  13
11.1715126038
  23
0.5
  33
1.68441772461
   0
3DFACE
   8
F3Surf
  10
11.1715126038
  20
0.33333337307
  30
1.68441772461
  11
11.1437339783
  21
0.33333337307
  31
1.53226208687
  12
11.1715126038
  22
0.5
  32
1.68441772461
  13
11.1715126038
  23
0.5
  33
1.68441772461
   0
3DFACE
   8
F3Surf
  10
11.1715126038
  20
0.5
  30
1.68441772461
  11
11.1437339783
  21
0.33333337307
  31
1.53226208687
  12
11.1437339783
  22
0.5
  32
1.53226208687
  13
11.1437339783
  23
0.5
  33
1.53226208687
   0
3DFACE
   8
F3Surf
  10
11.1437339783
  20
0.33333337307
  30
1.53226208687
  11
11.113067627
  21
0.33333337307
  31
1.37973618507
  12
11.1437339783
  22
0.5
  32
1.53226208687
  13
11.1437339783
  23
0.5
  33
1.53226208687
   0
3DFACE
   8
F3Surf
  10
11.1437339783
  20
0.5
  30
1.53226208687
  11
11.113067627
  21
0.33333337307
  31
1.37973618507
  12
11.113067627
  22
0.5
  32
1.37973618507
  13
11.113067627
  23
0.5
  33
1.37973618507
   0
3DFACE
   8
F3Surf
  10
11.113067627
  20
0.33333337307
  30
1.37973618507
  11
11.0781707764
  21
0.33333337307
  31
1.23285639286
  12
11.113067627
  22
0.5
  32
1.37973618507
  13
11.113067627
  23
0.5
  33
1.37973618507
   0
3DFACE
   8
F3Surf
  10
11.0781707764
  20
0.5
  30
1.23285639286
  11
11.0378351212
  21
0.33333337307
  31
1.09779822826
  12
11.0378351212
  22
0.5
  32
1.09779822826
  13
11.0378351212
  23
0.5
  33
1.09779822826
   0
3DFACE
   8
F3Surf
  10
11.0378351212
  20
0.33333337307
  30
1.09779822826
  11
11.0235347748
  21
0.33333337307
  31
0.97278881073
  12
11.0378351212
  22
0.5
  32
1.09779822826
  13
11.0378351212
  23
0.5
  33
1.09779822826
   0
3DFACE
   8
F3Surf
  10
11.0378351212
  20
0.5
  30
1.09779822826
  11
11.0235347748
  21
0.33333337307
  31
0.97278881073
  12
11.0235347748
  22
0.5
  32
0.97278881073
  13
11.0235347748
  23
0.5
  33
0.97278881073
   0
3DFACE
   8
F3Surf
  10
11.0235347748
  20
0.33333337307
  30
0.97278881073
  11
11.0667419434
  21
0.33333337307
  31
0.85596716404
  12
11.0235347748
  22
0.5
  32
0.97278881073
  13
11.0235347748
  23
0.5
  33
0.97278881073
   0
3DFACE
   8
F3Surf
  10
11.0235347748
  20
0.5
  30
0.97278881073
  11
11.0667419434
  21
0.33333337307
  31
0.85596716404
  12
11.0667419434
  22
0.5
  32
0.85596716404
  13
11.0667419434
  23
0.5
  33
0.85596716404
   0
3DFACE
   8
F3Surf
  10
11.0667419434
  20
0.33333337307
  30
0.85596716404
  11
11.1502904892
  21
0.33333337307
  31
0.719277620316
  12
11.0667419434
  22
0.5
  32
0.85596716404
  13
11.0667419434
  23
0.5
  33
0.85596716404
   0
3DFACE
   8
F3Surf
  10
11.0667419434
  20
0.5
  30
0.85596716404
  11
11.1502904892
  21
0.33333337307
  31
0.719277620316
  12
11.1502904892
  22
0.5
  32
0.719277620316
  13
11.1502904892
  23
0.5
  33
0.719277620316
   0
ENDSEC
   0
EOF
